<svg width="238" height="761" viewBox="0 0 238 761" fill="none" xmlns="http://www.w3.org/2000/svg">
<g clip-path="url(#clip0_501_3693)">
<path d="M67.31 26.5199H96.5696L129.446 39.6703C129.007 41.4602 127.692 46.377 125.939 51.7248C123.747 58.4096 123.966 69.4779 124.405 75.6147C124.843 81.7516 125.829 80.9845 123.309 81.5324C120.788 82.0804 99.3092 93.587 95.1449 98.8471C90.9806 104.107 84.1863 107.724 78.0494 108.272C71.9126 108.819 66.6524 103.888 60.9539 98.8471C55.2554 93.8061 51.6471 87.998 50.88 84.1625C50.2948 81.2363 50.7594 79.1738 51.2473 78.5454C51.176 78.3184 51.1046 77.5876 51.3184 76.7106C52.3827 72.3454 52.7431 68.6012 52.7431 66.0807C52.7431 63.5602 50.4336 59.9438 51.8582 56.6562C52.9979 54.0262 53.2098 45.4053 53.1733 41.4237L67.31 26.5199Z" fill="white"/>
<path d="M66.9713 329.334C70.9663 353.231 73.1024 376.779 73.1311 401.354C73.1311 403.441 73.0355 405.543 71.9077 406.986C70.7799 408.434 69.2651 408.391 67.8076 408.4C63.3587 408.434 58.8524 408.348 54.3891 408.29C53.4668 408.276 52.4824 408.276 51.6987 407.516C50.3846 406.25 50.1409 403.967 50.0548 401.879C49.1804 380.214 46.8675 358.558 44.1389 337.422C43.0398 328.895 40.4163 320.305 48.129 316.708C54.8861 313.555 63.5068 318.141 71.2435 318.318C86.3584 318.666 121.066 316.149 138.699 313.899C168.523 310.096 152.634 345.229 166.822 385.488C184.383 435.306 173.837 448.583 185.544 486.334C186.228 495.234 187.542 510.092 193.071 515.471C198.595 520.85 196.779 526.688 199.384 534.418C201.988 542.153 205.237 553.719 202.38 561.153C199.522 568.581 189.664 567.076 190.519 574.696C191.374 582.316 194.538 587.457 189.076 592.034C183.614 596.615 187.939 612.342 185.091 617.062C182.238 621.787 175.872 620.072 176.608 626.058C177.344 632.044 181.368 633.401 180.082 641.236C178.797 649.071 171.629 640.873 166.769 641.527C161.909 642.182 133.791 646.835 133.6 641.881C133.409 636.927 134.838 630.606 133.6 624.721C132.363 618.835 133.266 606.91 130.571 602.682C127.876 598.454 116.779 601.087 112.952 598.526C109.124 595.97 99.8964 585.35 98.2095 592.378C96.5226 599.405 102.4 603.676 99.0314 615.777C95.6625 627.878 92.8144 645.502 86.7789 655.148C80.7435 664.793 72.6341 682.116 63.0719 676.178C53.5098 670.24 56.4535 664.21 60.2669 650.428C64.0802 636.645 61.2656 614.865 59.5835 602.472C57.9062 590.08 54.7523 596.534 48.7694 594.79C42.7865 593.042 42.17 581.987 33.7261 579.507C25.287 577.023 11.5053 577.434 12.2795 558.802C13.0536 540.165 17.0103 525.633 15.3569 510.775C13.7035 495.917 13.4741 474.147 9.24022 465.92C5.00632 457.693 7.97866 445.812 5.92861 436.004C2.04833 417.42 3.61573 427.08 5.64189 417.922C8.64289 404.363 2.08656 378.556 8.86749 367.405C15.6484 356.25 13.4502 340.724 14.707 330.734C15.9638 320.749 15.7297 320.792 14.8504 312.69C24.4412 314.2 34.1323 314.902 43.7613 316.029" fill="white"/>
<path d="M66.9713 329.334C70.9663 353.231 73.1024 376.779 73.131 401.354C73.131 403.441 73.0355 405.543 71.9077 406.986C70.7799 408.434 69.2651 408.391 67.8076 408.4C63.3587 408.434 58.8524 408.348 54.3891 408.29C53.4668 408.276 52.4824 408.276 51.6987 407.516C50.3846 406.25 50.1409 403.967 50.0548 401.879C49.1804 380.214 46.8675 358.558 44.1389 337.422C43.0398 328.895 40.4163 320.305 48.129 316.708C54.8861 313.555 63.5068 318.141 71.2435 318.318C86.3584 318.666 121.066 316.149 138.699 313.899C168.523 310.096 152.634 345.229 166.822 385.488C184.383 435.306 173.837 448.583 185.544 486.334C186.228 495.234 187.542 510.092 193.071 515.471C198.595 520.85 196.779 526.688 199.384 534.418C201.988 542.153 205.237 553.719 202.38 561.153C199.522 568.581 189.664 567.076 190.519 574.696C191.374 582.316 194.538 587.457 189.076 592.034C183.614 596.615 187.939 612.342 185.091 617.062C182.238 621.787 175.872 620.072 176.608 626.058C177.344 632.044 181.368 633.401 180.082 641.236C178.797 649.071 171.629 640.873 166.769 641.527C161.909 642.182 133.791 646.835 133.6 641.881C133.409 636.927 134.838 630.606 133.6 624.721C132.363 618.835 133.266 606.91 130.571 602.682C127.876 598.454 116.779 601.087 112.952 598.526C109.124 595.97 99.8964 585.35 98.2095 592.378C96.5226 599.405 102.4 603.676 99.0314 615.777C95.6625 627.878 92.8144 645.502 86.7789 655.148C80.7435 664.793 72.6341 682.116 63.0719 676.178C53.5098 670.24 56.4535 664.21 60.2669 650.428C64.0802 636.645 61.2656 614.865 59.5835 602.472C57.9062 590.08 54.7523 596.534 48.7694 594.79C42.7865 593.042 42.17 581.987 33.7261 579.507C25.287 577.023 11.5053 577.434 12.2795 558.802C13.0536 540.165 17.0103 525.633 15.3569 510.775C13.7035 495.917 13.4741 474.147 9.24022 465.92C5.00632 457.693 7.97866 445.812 5.92861 436.004C2.04833 417.42 3.61573 427.08 5.64189 417.922C8.64289 404.363 2.08656 378.556 8.86749 367.405C15.6484 356.25 13.4502 340.724 14.707 330.734C15.9638 320.749 15.7297 320.792 14.8504 312.69C24.4412 314.2 34.1323 314.902 43.7613 316.029" stroke="black" stroke-width="1.75339" stroke-miterlimit="10"/>
<path d="M77.3745 586.243C76.2611 585.656 74.7893 585.083 74.1919 586.812C73.9434 587.529 74.168 588.212 74.4834 588.823C76.2133 592.191 78.8177 593.371 81.6467 593.696C84.4756 594.021 87.1804 593.725 89.9329 594.733C90.8217 595.058 91.5624 595.693 92.5181 595.784C95.2372 596.051 97.3446 594.193 99.2895 591.585C91.7249 590.93 84.5186 589.998 77.3745 586.243Z" fill="black"/>
<path d="M28.5601 464.477C27.6665 465.165 26.467 464.869 25.3918 464.783C22.6967 464.563 20.0541 464.644 17.5453 466.355C15.0412 468.065 13.4786 470.865 12.7331 474.624C12.5993 475.298 12.4082 476.101 11.9542 475.991C11.5002 475.881 11.4764 475.336 11.3903 474.868C10.9029 472.26 10.4728 469.623 9.93762 467.033C10.4585 466.297 11.0511 466.775 11.6723 466.938C16.2502 468.165 19.4233 464.831 23.4708 462.141C24.7419 461.296 26.2663 459.781 27.8194 460.321C29.3725 460.856 30.4333 463.02 28.5601 464.468V464.477Z" fill="black"/>
<path d="M18.3052 516.054C19.4616 517.224 20.9813 517.831 21.8271 519.35C22.6729 520.865 22.6634 522.365 22.8545 524.08C22.931 524.758 22.9214 525.446 22.7733 526C22.6251 526.555 22.4053 526.86 22.1138 527.171C20.6898 528.714 19.0698 529.335 17.3686 529.923C16.8764 530.095 16.3173 530.209 15.9445 529.717C15.5718 529.225 15.6005 528.709 15.567 528.017C15.2899 521.892 14.4249 515.71 15.5384 509.662C15.9971 512.261 16.7713 514.496 18.31 516.054H18.3052Z" fill="black"/>
<path d="M33.253 536.798C33.1336 540.672 29.6595 540.715 26.6776 540.734L24.0111 540.801L21.3446 540.868C19.4666 540.916 17.4834 541.049 15.7679 540.041C14.9842 539.339 14.492 538.46 14.2531 537.562C14.9794 538.15 15.7201 538.613 16.4847 538.799C17.9135 539.631 19.6482 539.463 21.3111 539.435C22.6348 539.401 25.3061 539.334 26.6298 539.301C27.5091 539.267 28.4314 539.287 29.2246 539.191C30.0322 539.091 30.7681 538.871 31.3225 538.412C32.0201 538.135 32.6605 537.528 33.2483 536.802L33.253 536.798Z" fill="black"/>
<path d="M22.5392 540.581C22.4532 542.11 22.4197 543.605 22.4771 545.091C22.3098 546.553 22.2572 548.034 22.2429 549.52C22.2095 553.982 22.5917 558.592 22.1856 563.083C22.09 564.449 22.0852 565.749 23.1413 566.699C24.3025 567.851 25.1244 569.26 25.6501 570.779C25.9655 572.365 25.9368 573.947 25.6549 575.447C25.3634 573.947 24.9572 572.504 24.293 571.243C23.839 569.929 23.1031 568.668 22.1234 567.707C21.5165 567.172 20.9861 566.241 20.8475 565.419C20.6659 564.569 20.6994 563.737 20.752 562.973C20.8905 561.463 20.9335 560.025 20.9383 558.52C20.9527 555.544 20.7854 552.539 20.8093 549.505C20.8093 547.986 20.8905 546.462 21.0339 544.938C21.4066 543.438 21.8702 541.957 22.5344 540.576L22.5392 540.581Z" fill="black"/>
<path d="M26.037 540.868C26.4002 543.108 26.8112 545.402 26.5627 547.671C26.3046 551.431 25.7407 555.233 24.9714 558.898C24.4887 561.482 24.1877 564.841 26.1421 566.771C26.5483 567.158 27.1027 567.292 27.8864 567.473C30.1132 567.999 31.8622 569.723 32.99 571.644C33.1668 571.973 33.334 572.48 33.4917 572.819C32.8801 573.139 32.235 573.478 31.499 573.383C29.9794 573.249 29.363 571.548 29.3582 570.325C29.7453 571.529 31.0116 573.13 32.2588 571.93L32.0247 572.814C31.1311 571.352 30.0893 569.886 28.4694 569.188C27.786 568.849 27.1409 568.82 26.3763 568.543C22.6872 566.928 22.9213 561.922 23.5617 558.63C24.3358 554.947 24.8758 551.302 25.1338 547.57C25.1243 545.984 25.8076 542.468 26.0418 540.868H26.037Z" fill="black"/>
<path d="M49.9927 561.602C48.7932 561.621 47.3214 561.984 46.834 563.689C46.3513 565.395 47.1637 566.885 48.1529 567.755C49.1469 568.624 50.332 568.811 51.4741 569.298C52.6114 569.79 53.7726 570.559 54.9816 570.889C56.1906 571.219 57.4522 570.989 58.3793 569.781C58.7663 569.279 59.0053 568.591 59.1916 567.979C60.3528 564.172 59.636 563.56 56.8692 562.624C54.7809 561.917 52.2196 561.568 49.9831 561.602H49.9927Z" fill="black"/>
<path d="M19.7103 354.244C19.5096 352.223 19.1082 348.2 19.6195 345.597C19.9588 343.867 20.6135 341.899 20.9575 339.998C21.3016 338.096 21.1821 336.066 20.2885 334.389C18.3484 341.818 17.8514 348.903 18.6207 356.699C18.6733 357.225 18.7737 357.698 18.6351 358.223C18.3197 359.399 17.3592 359.785 16.585 360.244C15.8109 360.703 14.8121 361.338 14.9698 362.633C15.1323 363.927 16.0737 364.31 17.1011 364.663C19.8345 365.6 26.4817 366.77 28.5222 365.991C31.1313 364.993 20.0543 357.784 19.7103 354.248V354.244Z" fill="black"/>
<path d="M14.2528 321.891C13.8323 326.329 14.9744 329.807 17.5214 332.726C18.1331 331.059 19.409 330.658 20.7183 330.815C22.0277 330.973 23.2654 331.594 24.5843 331.499C25.4349 331.436 26.1804 330.935 26.9975 330.682C29.5063 329.912 32.1394 329.616 34.4092 331.465C37.415 333.916 38.7531 338.058 39.6992 342.348C41.8496 352.103 42.4804 361.625 42.3944 371.715C41.8687 364.897 41.4195 358.037 40.9369 351.229C40.8652 350.236 40.8652 349.146 41.128 348.329C41.3909 347.512 41.778 347.254 42.0694 346.586C43.0777 344.283 42.834 341.966 42.1841 339.568C41.5342 337.169 40.3874 335.182 39.9573 332.674C39.2405 328.498 40.0194 324.676 42.165 321.538C43.5986 319.436 45.4862 318.036 45.1326 314.907C32.8705 313.727 20.5798 312.895 8.29858 312.771C8.76212 314.787 9.44547 318.595 10.363 319.942C11.8157 322.082 12.5898 320.945 14.248 321.882L14.2528 321.891Z" fill="black"/>
<path d="M67.114 424.556C67.9747 425.285 68.2362 426.136 68.4312 427L69.0779 429.579C69.8815 432.778 71.8977 441.703 72.6871 445.103C75.8635 458.907 79.8151 472.563 84.7035 485.94C86.2346 490.108 87.9322 494.289 88.8215 498.649C89.0164 499.517 89.1258 500.412 89.3112 501.25C89.6726 502.974 90.6522 504.593 90.8044 506.378C91.5652 516.551 91.2656 527.959 91.9599 538.128C92.1216 541.68 92.7397 545.12 92.987 548.681C93.1772 551.374 92.036 553.922 91.7602 556.571C91.1467 560.901 91.4368 565.335 92.7065 569.542C93.1677 571.174 93.8525 572.789 95.4978 573.671C97.1716 574.622 98.503 576.141 99.4779 577.703C100.457 579.296 101.042 581.073 101.294 582.866C101.57 584.73 101.461 586.615 101.194 588.457C99.4446 589.5 98.465 591.241 98.0228 593.083L97.0004 592.865C97.4759 590.918 98.5791 588.968 100.424 587.82L100.215 588.13C100.472 586.419 100.562 584.677 100.324 582.975C99.9914 580.427 98.9167 577.956 97.0622 576.027C96.0399 574.718 94.2757 574.247 93.3151 572.898C92.5971 571.956 92.1549 570.816 91.8695 569.738C90.3384 564.562 90.2908 559.072 91.4606 553.831C91.9123 552.111 92.3356 550.461 92.2309 548.69C92.1834 546.957 91.8553 545.216 91.6888 543.448C91.1135 538.172 90.9518 532.86 90.8329 527.566C90.6855 521.378 90.657 512.514 90.1862 506.43C90.034 504.663 89.0735 503.096 88.7168 501.35C88.384 499.587 88.1129 497.889 87.6232 496.165C86.7054 492.757 85.3882 489.44 84.1756 486.088C78.2697 469.438 73.4336 452.025 68.8924 435.026C68.4407 433.311 68.0317 431.587 67.6228 429.859L67.0331 427.266C66.8192 426.407 66.667 425.534 67.1187 424.539L67.114 424.556Z" fill="black"/>
<path d="M56.0278 415.012C57.103 421.423 57.6382 427.801 57.7147 434.394" stroke="black" stroke-width="1.75339" stroke-miterlimit="10"/>
<path d="M68.2255 444.938C69.0331 447.924 70.8729 451.593 73.1762 449.801C73.4868 449.562 71.518 434.189 68.5074 434.404C67.5708 437.117 67.4179 441.952 68.2255 444.938Z" fill="black"/>
<path d="M122.566 577.076C124.569 577.649 126.671 578.041 127.288 581.203C124.296 580.692 121.31 580.205 118.323 579.689C118.877 581.6 118.992 583.377 118.681 585.393C117.372 585.68 116.517 584.371 116.063 582.761C115.609 581.146 115.709 579.469 114.964 578.022C113.683 575.552 111.642 574.166 109.96 572.298C114.28 573.168 118.313 575.858 122.571 577.076H122.566Z" fill="black"/>
<path d="M111.685 580.616C107.561 579.077 103.542 577.706 99.9916 574.128C96.4411 570.55 94.3719 565.686 94.0709 559.519C93.9896 557.799 94.3289 556.141 93.8128 554.689C93.2967 553.241 91.9252 552.061 91.0364 553.595C90.1476 555.128 91.4187 557.278 91.9969 558.931C92.5799 560.584 92.3649 562.466 92.7519 564.372C94.2381 571.644 98.9929 574.897 102.486 580.123C104.259 582.775 102.644 586.028 101.382 588.407C105.779 590.333 111.852 588.436 111.675 580.616H111.685Z" fill="black"/>
<path d="M80.1427 459.703C81.1175 463.282 83.3205 465.919 85.361 468.393C85.5043 463.616 85.5712 458.815 85.6716 454.037C87.5162 454.563 88.6009 456.751 88.7108 459.331C88.816 461.91 88.0275 463.998 87.7025 466.425C87.1291 470.672 87.3919 474.824 87.7647 479.066C88.3524 485.774 88.9641 492.409 89.5232 499.107C84.3192 484.235 74.91 467.581 77.285 450.182C79.1774 453.01 79.1726 456.125 80.1474 459.703H80.1427Z" fill="black"/>
<path d="M100.575 564.143C99.9103 564.396 99.3464 563.388 99.6475 562.447C99.9486 561.506 100.632 561.291 101.325 561.043C102.018 560.794 102.601 560.914 103.265 560.111C103.929 559.309 103.972 557.794 104.479 556.6C105.301 554.674 106.887 553.987 108.397 554.808C109.401 557.46 109.334 560.006 109.124 562.968C108.913 565.93 108.67 569.04 108.455 572.026C105.43 569.551 102.577 566.804 99.8291 563.737" fill="black"/>
<path d="M92.7141 596.123C90.0954 597.165 87.1565 598.249 84.5665 599.357C83.6729 599.73 82.7793 600.098 81.8713 600.452L82.1963 599.912C81.9621 604.054 82.1103 608.191 82.6741 612.304C82.8271 613.675 82.9274 615.051 83.023 616.427C83.0612 617.11 83.2715 617.688 83.821 618.028C88.4277 620.622 92.0403 618.372 95.0366 614.602L95.156 614.679C93.9614 617.254 91.9591 619.709 89.025 620.431C86.7647 620.942 84.2415 620.345 82.4973 618.864C81.9 618.228 81.6276 617.282 81.6515 616.494C81.6324 615.113 81.6133 613.737 81.6515 612.357C81.7327 609.6 81.8092 606.839 81.5368 604.092C81.403 602.606 81.1736 601.12 81.0303 599.635C83.7446 598.125 86.7217 597.117 89.7466 596.453C90.7119 596.247 91.6915 596.085 92.6759 595.999L92.7093 596.138L92.7141 596.123Z" fill="black"/>
<path d="M82.5639 661.554C83.8923 657.732 82.7646 655.439 82.3488 652.066C82.1051 650.065 81.5651 648.498 81.245 646.601C81.0681 645.574 80.8197 644.633 80.2558 643.959C79.6871 643.286 78.9655 643.257 78.2583 643.104C76.4281 642.717 74.7221 641.957 73.04 640.863C72.0747 640.233 71.1954 639.354 70.0868 639.511C68.4907 639.736 67.468 641.585 66.8851 643.577C66.3021 645.574 66.0822 647.9 65.4801 649.768C64.878 651.636 63.9032 653.332 63.7455 655.229C63.5878 657.13 64.0561 658.611 64.5531 660.159C65.6474 663.566 66.5362 667.153 67.7357 670.397C68.4955 672.447 68.9112 675.246 71.0616 675.093C75.3815 674.783 80.7958 666.647 82.5639 661.55V661.554Z" stroke="black" stroke-width="1.75339" stroke-miterlimit="10"/>
<path d="M74.1056 655.21C73.838 656.027 74.1342 657.317 74.5213 658.057C74.9084 658.798 75.7781 659.624 76.3898 659.084C79.7635 656.108 76.2799 648.531 74.1056 655.21Z" fill="black"/>
<path d="M80.4425 659.328C80.9873 657.919 80.7149 656.037 80.6193 654.632C80.519 653.227 80.3422 652.019 79.8261 650.901C78.6887 648.46 76.5383 647.514 74.6603 648.45C72.7871 649.386 71.105 651.78 70.9138 654.575C70.2878 663.838 77.1787 667.813 80.4425 659.328Z" stroke="black" stroke-width="1.75339" stroke-miterlimit="10"/>
<path d="M79.267 661.798C76.5861 665.983 72.2662 666.953 69.1075 662.625C66.7277 659.156 66.5366 654.541 67.7408 650.6C67.9893 649.902 68.3429 649.219 68.902 648.651C70.4599 647.012 72.8922 647.308 74.7989 646.787L74.861 646.916C73.1885 648.03 71.0859 647.944 69.8387 649.501C68.7921 650.982 68.7252 653.008 68.4528 654.78C68.1852 657.283 68.5102 659.949 69.8769 662.099C71.2914 664.33 73.7094 665.649 76.2277 664.282C77.3746 663.695 78.3304 662.749 79.1475 661.717L79.267 661.798Z" fill="black"/>
<path d="M79.7398 625.595C84.0406 627.592 88.2028 626.569 91.5096 622.055C94.8212 617.54 95.7722 611.783 96.1163 605.53C96.3409 601.478 97.0481 597.7 97.5116 593.753C100.666 597.217 100.178 601.55 100.235 606.533C100.302 612.309 98.4148 616.523 97.1341 621.625C93.7413 635.13 90.2289 647.662 83.7156 658.707C83.5484 658.989 83.3954 659.295 83.1135 659.304C82.1195 659.347 82.0909 657.665 82.1243 656.509C82.282 650.27 79.2237 648.416 77.9764 642.597C76.906 637.6 79.41 630.845 79.7398 625.59V625.595Z" fill="black"/>
<path d="M62.7565 662.467C61.7912 665.266 60.6205 667.33 59.2203 669.604C58.9001 667.975 59.0292 666.58 59.6934 665.185C59.9801 664.578 60.3194 664.277 60.6061 663.585C60.8928 662.892 60.9836 662.032 61.1843 661.186C61.7434 658.774 62.6801 656.548 63.7314 654.489C63.9751 657.154 63.5593 660.131 62.7517 662.467H62.7565Z" fill="black"/>
<path d="M191.838 587.046C190.944 590.835 188.799 593.004 186.156 593.878C183.513 594.752 180.962 594.465 178.324 594.91C175.213 595.431 172.365 597.294 169.24 597.752C160.428 599.033 151.993 594.623 143.201 594.255C141.953 594.203 140.687 594.499 139.54 595.096C138.393 595.693 137.667 596.696 136.596 597.513C132.195 600.872 127.928 601.483 123.092 599.692" stroke="black" stroke-width="1.75339" stroke-miterlimit="10"/>
<path d="M124.927 475.255C121.907 473.545 119.833 470.282 119.288 465.729C119.006 463.397 119.298 461.138 118.681 459.179C118.06 457.216 116.731 456.169 116.884 454.034C117.08 451.253 119.288 450.599 120.879 450.164C118.963 459.031 122.112 467.482 124.932 475.255H124.927Z" fill="black"/>
<path d="M183.208 524.988C185.951 540.428 187.695 555.014 185.253 570.846C184.302 570.784 183.337 570.684 182.395 570.621C186.72 557.011 184.894 544.699 181.86 530.797C180.426 524.219 179.504 519.322 177.387 512.242C174.396 502.219 168.394 489.004 171.787 477.285C174.663 481.189 175.605 487.743 176.704 492.812C179.093 503.867 181.234 513.909 183.203 524.988H183.208Z" fill="black"/>
<path d="M124.75 536.678C121.591 534.801 118.657 534.652 115.451 536.411C115.059 536.626 114.777 536.788 114.552 537.442C114.328 538.097 114.605 539.119 115.116 539.544C115.628 539.974 116.268 540.123 116.846 540.199C118.079 540.361 119.546 540.624 120.693 540.753C121.84 540.887 122.719 541.04 123.684 540.352C124.654 539.664 125.013 538.197 124.506 536.893" fill="black"/>
<path d="M187.484 562.853C185.086 561.812 181.946 560.981 179.122 561.105C174.162 561.324 169.12 562.939 164.265 564.664C162.425 565.318 160.49 566.011 158.717 566.656C157.976 566.924 157.035 567.812 157.556 568.815C157.704 569.097 157.967 569.059 158.191 569.069C161.665 569.241 165.135 568.825 168.532 567.87C169.756 567.526 171.084 567.115 172.202 567.334C173.32 567.554 173.937 568.147 174.888 568.6C177.344 569.771 179.351 570.153 182.085 570.593C184.818 571.032 191.107 573.024 193.047 569.632C195.747 564.903 189.888 563.89 187.489 562.848L187.484 562.853Z" fill="black"/>
<path d="M188.354 578.647C180.732 586.76 179.122 576.049 166.869 580.53L166.793 580.406C168.212 578.977 170.147 578.041 172.178 577.878C173.731 577.764 175.261 578.132 176.656 578.776C178.873 580.028 180.374 581.71 183.093 580.601C184.856 580.076 186.471 579.106 188.273 578.523L188.349 578.643L188.354 578.647Z" fill="black"/>
<path d="M74.4498 391.13C75.7878 389.453 77.4747 388.545 79.2284 388.015C83.2712 386.797 87.8922 386.988 90.659 382.449C92.3459 379.688 91.7438 376.282 91.7772 373.067C89.1585 376.654 86.1575 378.776 82.497 379.626C80.1794 380.166 77.747 379.87 75.74 381.408C73.7282 382.946 72.9875 385.345 72.5765 388.173C72.2659 390.327 72.5478 392.329 72.8919 394.412C73.3459 393.265 73.7282 392.038 74.4498 391.13Z" fill="black"/>
<path d="M149.853 644.117C150.895 644.059 151.931 644.117 152.997 644.064C153.25 644.05 153.465 644.131 153.738 643.83C154.01 643.529 154.139 642.956 154.163 642.344C154.713 627.515 154.163 613.078 152.586 598.254C152.309 595.626 151.043 592.387 149.169 596.993C148.128 599.558 149.805 608.731 149.991 611.912C150.656 623.144 150.283 633.205 149.858 644.112L149.853 644.117Z" stroke="black" stroke-width="1.75339" stroke-miterlimit="10"/>
<path d="M137.514 620.856C138.962 621.654 140.056 623.885 140.849 625.987C142.331 629.923 143.836 633.889 145.322 637.878C146.048 639.827 146.913 641.68 148.538 642.106C148.036 638.379 147.277 634.557 146.201 631.256C147.014 629.393 147.549 633.654 148.433 629.818C148.811 628.17 147.965 608.129 147.764 605.535C146.904 594.551 145.059 592.793 138.46 595.306C135.316 596.505 133.471 599.582 132.635 604.331C132.1 607.369 132.023 612.376 132.616 615.362C133.538 619.991 134.69 619.303 137.514 620.856Z" fill="black"/>
<path d="M168.159 373.009C167.323 372.981 166.492 372.933 165.655 372.895C165.168 372.871 164.661 372.813 164.207 372.575C163.749 372.336 163.333 371.7 163.29 371.141C163.247 370.582 163.362 370.253 163.596 369.909C164.451 368.643 165.717 368.261 166.836 369.178C167.954 370.095 168.298 371.915 167.705 373.425" fill="white"/>
<path d="M160.863 376.052C160.303 377.801 160.069 379.583 159.988 381.508C159.477 393.791 159.763 405.84 160.662 418.065C159.711 417.879 158.774 417.726 157.819 417.53C157.589 417.482 157.384 417.477 157.178 417.219C156.973 416.961 156.915 416.512 156.896 416.087C156.442 407.526 156.657 399.017 156.619 390.413C156.6 386.429 155.525 381.991 155.993 378.169C156.175 376.688 154.98 376.401 156.251 375.747C157.006 375.36 159.873 376.965 160.863 376.052Z" fill="white"/>
<path d="M59.1486 335.11C60.4245 332.492 59.6408 329.363 57.6195 327.786C55.5981 326.205 53.2183 326.573 51.1252 327.681C50.0023 328.278 48.9701 329.014 48.3154 330.4C46.8292 333.529 47.2211 337.25 49.3619 339.802C51.5028 342.353 54.4034 342.592 57.0221 341.225C57.8632 340.786 58.494 340.088 59.0148 339.128C59.7938 337.69 59.8415 336.037 59.507 334.365" stroke="black" stroke-width="1.75339" stroke-miterlimit="10"/>
<path d="M174.797 234.288C166.081 235.626 154.674 234.766 147.434 234.666C146.913 234.656 146.445 234.25 146.211 233.882C145.714 233.089 146.713 232.162 147.692 231.575C152.777 228.517 159.443 227.399 165.813 227.103C172.183 226.807 178.529 227.227 184.899 226.764C189.453 226.429 193.859 227.786 198.231 228.493C200.888 228.923 203.569 227.748 206.264 228.063C208.276 228.297 209.566 230.71 211.201 229.812C211.722 229.525 210.307 230.275 209.973 230.638C206.599 234.288 203.665 234.345 195.962 234.288" fill="white"/>
<path d="M174.797 234.288C166.081 235.626 154.674 234.766 147.434 234.666C146.913 234.656 146.445 234.25 146.211 233.882C145.714 233.089 146.713 232.162 147.692 231.575C152.777 228.517 159.443 227.399 165.813 227.103C172.183 226.807 178.529 227.227 184.899 226.764C189.453 226.429 193.859 227.786 198.231 228.493C200.888 228.923 203.569 227.748 206.264 228.063C208.276 228.297 209.566 230.71 211.201 229.812C211.722 229.525 210.307 230.275 209.973 230.638C206.599 234.288 203.665 234.345 195.962 234.288" stroke="#1D1D1B" stroke-width="0.65752" stroke-miterlimit="10"/>
<path d="M134.685 183.753C134.293 188.688 137.208 193.203 138.579 197.961C140.424 204.367 141.647 213.53 140.668 220.128C139.592 227.375 153.618 268.929 152.337 281.986C151.362 291.937 148.725 301.817 149.441 311.792C149.671 314.95 151.315 319.073 148.949 321.175C148.046 321.977 142.67 322.818 142.67 322.818C119.226 335.86 89.4165 324.313 44.1816 318.265C-1.05332 312.217 7.10387 319.068 7.10387 319.068C7.34758 299.748 18.544 270.305 21.1866 248.821C23.3513 231.207 28.7895 219.053 30.9542 201.439C28.9042 202.676 18.8068 203.928 17.3302 202.041C39.164 159.637 25.7837 125.894 69.671 120.39C69.671 120.39 110.591 108.05 135.97 117.863C152.653 124.313 148.266 122.512 162.506 133.332C165.909 135.917 169.364 138.554 171.844 142.032C174.491 145.744 175.872 150.187 177.143 154.568C183.551 176.62 208.324 207.712 211.301 230.485C211.301 230.485 200.497 228.746 193.826 228.14C187.155 227.533 171.132 225.732 162.984 227.299C154.836 228.866 147.305 232.831 146.211 233.892C145.117 234.952 134.685 183.762 134.685 183.762V183.753Z" fill="white" stroke="#1D1D1B" stroke-width="1.97256" stroke-miterlimit="10"/>
<path d="M190.022 616.871C187.632 620.249 184.192 621.587 181.253 618.629C178.314 615.677 177.955 610.709 179.16 606.194C179.389 605.329 179.786 604.565 180.316 604.049C181.888 602.52 183.876 602.812 185.635 601.966" fill="white"/>
<path d="M190.079 616.91C187.399 621.099 183.079 622.064 179.92 617.736C177.54 614.268 177.349 609.653 178.553 605.711C178.802 605.014 179.155 604.331 179.714 603.762C181.272 602.124 183.705 602.42 185.611 601.899L185.673 602.028C184.001 603.141 181.898 603.055 180.651 604.613C179.604 606.094 179.538 608.119 179.265 609.892C178.998 612.395 179.323 615.061 180.689 617.211C182.104 619.442 184.522 620.76 187.04 619.394C188.187 618.806 189.143 617.86 189.96 616.828L190.075 616.91H190.079Z" fill="black"/>
<path d="M191.733 614.445C192.277 613.035 192.005 611.153 191.909 609.748C191.809 608.344 191.632 607.135 191.116 606.017C189.979 603.576 187.828 602.63 185.95 603.566C184.077 604.503 182.395 606.896 182.204 609.691C181.578 618.954 188.469 622.929 191.733 614.445Z" fill="white" stroke="black" stroke-width="1.97256" stroke-miterlimit="10"/>
<path d="M185.396 610.322C185.129 611.138 185.425 612.428 185.812 613.169C186.199 613.909 187.069 614.736 187.68 614.196C191.054 611.22 187.571 603.643 185.396 610.322Z" fill="black"/>
<path d="M99.7862 615.424C97.3969 618.801 93.9563 620.139 91.0174 617.182C88.0785 614.229 87.7201 609.261 88.9243 604.746C89.1537 603.882 89.5503 603.117 90.0808 602.601C91.6529 601.072 93.6409 601.364 95.3994 600.518" fill="white"/>
<path d="M99.8433 615.462C97.1624 619.647 92.8425 620.617 89.6838 616.289C87.304 612.82 87.1129 608.205 88.3171 604.264C88.5656 603.566 88.9192 602.883 89.4783 602.315C91.0362 600.676 93.4685 600.972 95.3752 600.452L95.4373 600.581C93.7648 601.694 91.6622 601.608 90.4149 603.165C89.3684 604.646 89.3015 606.672 89.0291 608.444C88.7615 610.948 89.0865 613.613 90.4532 615.763C91.8677 617.994 94.2857 619.313 96.804 617.946C97.9509 617.359 98.9066 616.413 99.7238 615.381L99.8433 615.462Z" fill="black"/>
<path d="M101.497 612.997C102.042 611.588 101.769 609.706 101.674 608.301C101.574 606.896 101.397 605.688 100.881 604.57C99.7433 602.129 97.5929 601.183 95.7149 602.119C93.8417 603.055 92.1596 605.449 91.9684 608.244C91.3424 617.507 98.2332 621.482 101.497 612.997Z" fill="white" stroke="black" stroke-width="1.97256" stroke-miterlimit="10"/>
<path d="M95.1606 608.874C94.893 609.691 95.1893 610.981 95.5764 611.721C95.9634 612.462 96.8332 613.288 97.4448 612.748C100.819 609.772 97.3349 602.195 95.1606 608.874Z" fill="black"/>
<path d="M49.6152 606.28C52.3725 602.382 56.3388 600.843 59.7317 604.25C63.1198 607.661 63.5355 613.389 62.1497 618.601C61.8821 619.599 61.4281 620.478 60.8117 621.076C58.9958 622.838 56.702 622.504 54.6711 623.479" fill="white"/>
<path d="M49.5529 606.237C52.6685 601.45 57.581 600.337 61.2033 605.315C63.9271 609.304 64.0991 614.597 62.7372 619.117C62.4553 619.91 62.0586 620.688 61.4326 621.333C59.6597 623.216 56.8738 622.891 54.6995 623.541L54.6374 623.412C56.5871 622.17 59.0385 622.284 60.496 620.483C60.9022 619.986 61.1889 619.351 61.3705 618.687C61.7146 617.287 62.0108 615.796 62.1351 614.335C62.4648 611.081 61.9344 607.527 59.784 604.966C58.078 602.84 55.531 601.975 53.0365 603.337C51.708 604.025 50.6089 605.124 49.6723 606.323L49.5576 606.242L49.5529 606.237Z" fill="black"/>
<path d="M146.192 285.115C146.273 281.04 145.92 276.955 146.321 272.899C146.412 271.982 146.55 271.036 147.033 270.248C147.63 269.273 148.677 268.657 149.384 267.759C149.795 267.233 150.44 266.536 150.971 266.937C151.143 267.066 151.229 267.286 151.286 267.496C151.64 268.848 151.138 270.252 150.703 271.576C148.572 278.073 147.955 285.058 148.916 291.827C149.126 293.308 149.356 295.123 147.979 296.127C146.933 296.886 145.432 296.824 144.825 295.644C144.218 294.464 145.384 292.247 145.623 291.063C146.015 289.109 146.159 287.107 146.197 285.115H146.192Z" fill="#1D1D1B"/>
<path d="M34.7199 251.621C32.1681 254.659 29.5876 257.669 26.9689 260.645L26.9976 260.425C30.2136 266.421 39.2166 265.805 43.8902 270.391L43.9714 270.467L43.8758 270.52C39.2357 273.162 34.242 275.168 29.1814 276.836C23.2606 278.923 20.3313 282.162 22.2093 288.622C23.036 291.942 24.8137 295.697 23.6286 299.051C24.484 295.491 22.7923 292.085 21.8414 288.722C18.8404 278.923 26.7204 277.146 34.0748 274.705C37.4103 273.506 40.6741 272.082 43.7946 270.381L43.7755 270.51C42.5856 269.34 41.0946 268.523 39.5607 267.873C35.064 265.915 28.952 265.422 26.5818 260.483C29.2626 257.54 31.9626 254.372 34.7151 251.621H34.7199Z" fill="#1D1D1B"/>
<path d="M161.225 292.453C160.007 292.716 159.285 293.943 158.745 295.066C156.581 299.571 154.98 304.344 153.981 309.241C152.934 314.376 152.519 319.756 150.125 324.418C152.71 325.039 155.228 325.938 157.627 327.094C159.596 321.036 163.314 315.704 165.746 309.819C166.324 308.419 166.84 306.924 166.659 305.419C166.429 303.517 165.12 301.864 164.972 299.958C164.838 298.272 165.799 296.566 165.015 294.99C164.356 293.661 162.855 292.109 161.23 292.458L161.225 292.453Z" fill="white" stroke="black" stroke-width="1.09587" stroke-miterlimit="10"/>
<path d="M166.697 227.022L169.502 239.257C169.593 239.668 170.071 239.586 170.448 239.806C171.299 240.298 173.134 240.298 175.026 239.582C175.485 239.405 175.944 239.295 175.901 238.831L174.764 226.711L166.697 227.022Z" fill="white" stroke="black" stroke-width="1.31504" stroke-miterlimit="10"/>
<path d="M187.346 227.519C187.221 228.116 187.307 235.549 187.398 236.997C187.412 237.226 187.188 237.393 186.949 237.336C183.623 236.548 180.942 237.202 179.862 237.556C179.58 237.647 179.27 237.494 179.184 237.221L176.216 226.759L187.346 227.519Z" fill="white" stroke="black" stroke-width="1.31504" stroke-miterlimit="10"/>
<path d="M197.72 229.043C197.72 229.043 195.436 245.042 194.82 242.18C194.198 239.319 189.162 237.169 189.162 237.169L189.405 227.71L197.72 229.043Z" fill="white" stroke="black" stroke-width="1.31504" stroke-miterlimit="10"/>
<path d="M186.189 262.909L187.069 271.466L179.017 291.612C178.95 291.775 178.773 291.865 178.591 291.832L178.023 291.717C177.65 291.646 177.292 291.865 177.22 292.219L176.981 293.361C176.938 293.561 177.01 293.767 177.172 293.905L177.66 294.326C177.803 294.45 177.86 294.641 177.803 294.813C177.034 297.173 171.347 314.109 169.684 314.395C167.959 314.692 166.272 314.677 164.877 314.29C164.036 314.056 164.107 312.231 163.878 311.553C163.816 311.371 163.806 311.176 163.844 310.989L166.597 297.722L173.559 281.986L177.683 279.42L184.66 261.954C184.756 261.715 185.222 259.52 185.399 259.72L186.175 262.886C186.175 262.886 186.185 262.9 186.185 262.909H186.189Z" fill="white" stroke="black" stroke-width="1.31504" stroke-miterlimit="10"/>
<path d="M176.875 241.301C176.875 241.301 172.866 242.3 170.692 241.865C168.518 241.43 166.917 240.427 165.345 242.768C163.772 245.109 155.983 254.525 152.136 267.558C148.285 280.595 147.726 290.661 149.274 292.864C150.822 295.066 150.98 294.531 150.98 294.531C150.98 294.531 149.886 292.883 151.735 292.587C153.579 292.29 158.459 291.817 162.96 294.397C162.96 294.397 164.298 295.324 164.843 294.531C165.392 293.738 169.363 283.505 171.237 278.756C173.11 274.007 173.282 270.73 177.167 271.686C177.167 271.686 177.674 272.932 179.609 267.29C181.544 261.653 181.453 261.151 181.453 261.151C181.453 261.151 177.062 257.745 175.251 254.797C173.44 251.845 173.889 247.842 175.466 244.841C177.043 241.841 177.798 241.091 176.875 241.297V241.301Z" fill="white" stroke="black" stroke-width="1.31504" stroke-miterlimit="10"/>
<path d="M173.951 250.307L171.724 250.092C171.586 250.077 171.447 250.135 171.371 250.24C171.151 250.55 170.539 251.152 169.182 250.995C167.538 250.808 167.443 249.81 167.237 249.805C167.022 249.796 164.552 249.241 162.693 250.579C160.834 251.917 159.199 253.56 159.199 253.56C159.199 253.56 159.367 253.116 160.929 250.808" fill="white"/>
<path d="M173.951 250.307L171.724 250.092C171.586 250.077 171.447 250.135 171.371 250.24C171.151 250.55 170.539 251.152 169.182 250.995C167.538 250.808 167.443 249.81 167.237 249.805C167.022 249.796 164.552 249.241 162.693 250.579C160.834 251.917 159.199 253.56 159.199 253.56C159.199 253.56 159.367 253.116 160.929 250.808" stroke="black" stroke-width="1.75339" stroke-miterlimit="10"/>
<path d="M171.598 246.717C171.739 245.626 170.919 244.62 169.768 244.472C168.616 244.323 167.568 245.087 167.427 246.178C167.286 247.269 168.105 248.275 169.257 248.423C170.409 248.572 171.457 247.808 171.598 246.717Z" fill="white" stroke="black" stroke-width="1.75339" stroke-miterlimit="10"/>
<path d="M175.974 255.885C175.974 255.885 170.201 255.862 166.091 256.569C161.981 257.276 162.149 256.263 162.627 253.746C163.104 251.228 162.622 250.301 163.95 250.077" stroke="black" stroke-width="1.75339" stroke-miterlimit="10"/>
<path d="M162.717 258.223C157.814 266.445 155.032 275.808 154.674 285.296L162.717 258.223Z" fill="white"/>
<path d="M162.717 258.223C157.814 266.445 155.032 275.808 154.674 285.296" stroke="black" stroke-width="0.65752" stroke-miterlimit="10" stroke-linecap="round"/>
<path d="M175.17 267.692C174.401 267.596 173.636 267.501 172.867 267.405C172.661 267.381 172.451 267.352 172.245 267.391C171.605 267.515 171.304 268.188 171.089 268.776C169.885 272.087 168.341 275.283 166.487 278.307" fill="white"/>
<path d="M175.17 267.692C174.401 267.596 173.636 267.501 172.867 267.405C172.661 267.381 172.451 267.352 172.245 267.391C171.605 267.515 171.304 268.188 171.089 268.776C169.885 272.087 168.341 275.283 166.487 278.307" stroke="black" stroke-width="0.65752" stroke-miterlimit="10" stroke-linecap="round"/>
<path d="M192.814 266.246C193.481 263.129 192.334 260.241 190.251 259.796C188.168 259.35 185.939 261.515 185.272 264.632C184.605 267.749 185.752 270.637 187.835 271.082C189.917 271.528 192.147 269.362 192.814 266.246Z" fill="white" stroke="black" stroke-width="1.31504" stroke-miterlimit="10"/>
<path d="M190.581 265.901C190.864 264.55 190.608 263.354 190.008 263.228C189.409 263.103 188.694 264.096 188.411 265.446C188.128 266.797 188.384 267.994 188.984 268.119C189.583 268.245 190.298 267.252 190.581 265.901Z" fill="white" stroke="black" stroke-width="1.09587" stroke-miterlimit="10"/>
<path d="M192.475 251.207C193.782 245.544 190.897 240.043 186.031 238.92C181.166 237.798 176.162 241.48 174.855 247.144C173.548 252.808 176.433 258.309 181.299 259.431C186.164 260.553 191.168 256.871 192.475 251.207Z" fill="white" stroke="black" stroke-width="1.09587" stroke-miterlimit="10"/>
<path d="M193.574 251.461C194.851 245.79 192.092 240.339 187.411 239.285C182.73 238.232 177.9 241.974 176.623 247.645C175.346 253.316 178.105 258.767 182.786 259.82C187.467 260.874 192.297 257.131 193.574 251.461Z" fill="white" stroke="black" stroke-width="1.09587" stroke-miterlimit="10"/>
<path d="M160.375 293.241L150.923 322.957C150.827 323.248 150.985 323.563 151.286 323.687C155.525 325.469 159.524 328.818 160.776 329.611C161.001 329.755 161.092 330.018 161.006 330.256L159.825 333.414C159.744 333.634 159.438 333.734 159.257 333.572C152.17 327.132 148.127 326.167 141.227 325.723C141.021 325.708 140.873 325.555 140.945 325.374L142.355 321.996C142.417 321.848 142.579 321.767 142.746 321.8L145.394 322.326C145.743 322.398 146.092 322.202 146.192 321.882L155.635 292.367L160.375 293.236V293.241Z" fill="white" stroke="black" stroke-width="1.53421" stroke-miterlimit="10"/>
<path d="M163.849 310.989L156.365 326.492L161.005 330.256C161.005 330.256 165.488 321.165 167.003 317.267C168.518 313.368 168.302 314.568 168.302 314.568L164.881 314.29L163.854 310.989H163.849Z" fill="white" stroke="black" stroke-width="1.75339" stroke-miterlimit="10"/>
<path d="M162.865 312.905C162.865 313.626 162.33 314.362 162.659 315.016C162.827 315.346 163.18 315.556 163.519 315.733C164.427 316.196 165.393 316.564 166.387 316.813" fill="white"/>
<path d="M162.865 312.905C162.865 313.626 162.33 314.362 162.659 315.016C162.827 315.346 163.18 315.556 163.519 315.733C164.427 316.196 165.393 316.564 166.387 316.813" stroke="black" stroke-width="1.75339" stroke-miterlimit="10"/>
<path d="M149.379 349.982C150.125 350.364 152.442 351.248 153.283 350.861C154.239 350.422 154.182 347.904 154.239 346.982C154.292 346.17 154.287 345.348 154.468 344.555C154.693 343.557 155.185 342.644 155.591 341.703C156.48 339.644 157.211 337.207 157.398 334.967C157.488 333.878 157.273 333.978 156.208 333.677C155.692 333.529 155.171 333.386 154.655 333.237C153.321 332.86 151.878 333.003 150.698 333.672C148.992 334.637 146.827 336.539 146.139 340.131C144.949 346.361 147.577 349.055 149.384 349.977L149.379 349.982Z" fill="white" stroke="black" stroke-width="1.75339" stroke-miterlimit="10"/>
<path d="M158.452 342.645C159.701 337.044 157.049 331.687 152.528 330.679C148.007 329.671 143.33 333.395 142.08 338.996C140.831 344.597 143.483 349.955 148.004 350.962C152.525 351.97 157.202 348.246 158.452 342.645Z" fill="white" stroke="black" stroke-width="1.09587" stroke-miterlimit="10"/>
<path d="M157.159 342.322C157.656 339.947 157.182 337.837 156.1 337.61C155.018 337.384 153.737 339.126 153.239 341.502C152.741 343.878 153.215 345.987 154.298 346.214C155.38 346.441 156.661 344.698 157.159 342.322Z" fill="white" stroke="black" stroke-width="1.75339" stroke-miterlimit="10"/>
<path d="M136.864 332.387C136.811 332.616 136.768 332.855 136.802 333.089C136.854 333.462 137.089 333.782 137.251 334.126C137.652 334.972 137.609 335.937 137.844 336.84C138.078 337.738 138.397 339.738 139.372 339.719C140.041 338.61 141.345 335.883 140.185 334.948C140.008 334.413 139.731 333.878 139.827 333.328C139.984 332.444 141.112 331.971 142.034 332.172C142.957 332.373 143.688 333.046 144.295 333.744C145.356 331.995 147.176 330.682 149.241 330.17C151.305 329.659 153.594 329.965 155.453 330.992C155.783 330.524 155.63 329.855 155.257 329.406C154.884 328.957 154.335 328.675 153.804 328.408C151.071 327.027 148.29 325.632 145.27 325.044C143.114 324.624 141.423 324.791 139.994 326.377C138.446 328.092 137.351 330.166 136.869 332.392L136.864 332.387Z" fill="white" stroke="black" stroke-width="1.31504" stroke-miterlimit="10"/>
<path d="M136.19 334.484C136.413 333.801 137.466 334.953 137.6 335.578C137.733 336.204 137.552 336.849 137.514 337.489C137.475 338.13 137.633 338.861 138.211 339.195C138.536 339.381 138.957 339.419 139.21 339.687C139.506 339.993 139.459 340.456 139.392 340.862C139.048 342.874 138.57 344.861 137.958 346.815C138.011 346.643 134.709 344.832 134.384 344.612C133.318 343.901 133.318 343.585 133.609 342.396C134.259 339.701 135.143 337.055 136.195 334.484H136.19Z" fill="white" stroke="black" stroke-width="1.09587" stroke-miterlimit="10"/>
<path d="M147.396 352.051C148.591 352.485 149.972 352.677 151.214 352.481C152.571 352.266 153.809 353.341 153.771 354.645C153.551 362.676 152.514 370.678 150.674 378.503C150.674 378.513 150.669 378.527 150.665 378.537C150.282 380.151 148.165 380.706 146.923 379.516C145.355 378.011 143.769 376.525 142.159 375.063C141.27 374.256 140.371 373.449 139.353 372.794C138.159 372.025 136.806 371.466 135.722 370.558C134.651 369.66 133.906 368.475 133.074 367.372C131.712 365.556 130.083 363.923 128.253 362.528C127.464 361.926 126.346 361.926 125.543 362.489C123.699 363.784 121.94 365.198 120.287 366.708C119.441 367.482 118.122 367.477 117.223 366.732C116.445 366.082 115.522 365.576 114.562 365.198C113.95 364.959 113.319 364.768 112.684 364.606C111.174 364.228 110.543 362.508 111.446 361.319C114.036 357.908 116.712 354.554 119.761 351.511C123.034 348.238 126.766 345.315 131.034 343.27C131.798 342.902 132.711 342.276 133.6 342.396C134.541 342.525 135.664 343.432 136.41 343.953C138.173 345.186 139.712 346.681 141.317 348.086C143.129 349.667 145.064 351.205 147.386 352.046L147.396 352.051Z" fill="white" stroke="black" stroke-width="1.75339" stroke-miterlimit="10"/>
<path d="M24.9237 202.26C24.4889 227.38 13.8945 251.707 15.0462 276.802" stroke="black" stroke-width="1.75339" stroke-miterlimit="10"/>
<path d="M159.41 343.108C158.444 347.761 154.746 350.957 151.147 350.24C147.549 349.524 145.418 345.171 146.383 340.513C147.229 336.438 150.168 333.486 153.298 333.29C153.747 333.261 154.196 333.29 154.645 333.381C158.244 334.097 160.375 338.45 159.41 343.108Z" fill="white" stroke="black" stroke-width="1.09587" stroke-miterlimit="10"/>
<path d="M162.243 343.767C161.278 348.42 157.579 351.616 153.981 350.9C150.383 350.183 148.251 345.831 149.217 341.173C150.062 337.098 153.001 334.145 156.131 333.949C156.581 333.921 157.03 333.949 157.479 334.04C161.077 334.757 163.209 339.109 162.243 343.767Z" fill="white" stroke="black" stroke-width="1.09587" stroke-miterlimit="10"/>
<path d="M133.299 351.291C131.522 353.647 130.011 356.202 128.807 358.892C133.38 360.698 137.567 363.478 141.007 366.995" stroke="black" stroke-width="0.65752" stroke-miterlimit="10" stroke-linecap="round"/>
<path d="M35.929 171.332C36.2922 168.833 36.6936 166.244 38.1033 164.151C40.3731 167.815 40.2489 172.493 39.274 176.692C38.2992 180.891 36.5741 184.904 35.843 189.151C35.5897 190.632 35.4463 192.171 34.7917 193.523C34.1465 194.856 33.0522 195.911 32.2542 197.168C31.7142 198.023 31.4179 198.945 31.4275 199.948C34.6722 191.75 34.6196 180.251 35.9242 171.332H35.929Z" fill="black"/>
<path d="M76.0934 133.237C76.1078 135.511 76.1221 137.785 76.1412 140.059C77.9475 139.352 79.018 137.231 78.6691 135.32C78.3203 133.409 76.7051 131.846 74.8175 131.383" fill="black"/>
<path d="M142.106 192.065C139.253 195.534 145.126 200.67 145.896 203.942C146.569 206.804 145.977 210.559 145.384 213.401C146.015 209.508 147.066 205.476 146.684 201.501C146.622 200.846 143.382 190.527 142.111 192.065H142.106Z" fill="black"/>
<path d="M142.159 272.092C137.15 274.581 132.281 277.342 127.536 280.29C125.166 281.761 122.824 283.28 120.721 285.062C118.628 286.84 116.779 288.918 115.608 291.34L115.35 290.475C118.805 292.343 122.877 292.663 126.752 292.262C130.704 291.832 134.58 290.59 138.498 289.496L138.546 289.63C131.287 293.093 122.193 296.098 114.696 291.612L114.156 291.282L114.442 290.747C117.209 285.602 122.27 282.449 127.13 279.621C129.552 278.207 132.028 276.883 134.522 275.603C137.017 274.328 139.545 273.114 142.096 271.967L142.159 272.096V272.092Z" fill="black"/>
<path d="M7.35254 318.557C9.56028 319.851 11.9926 320.759 14.511 321.222" stroke="black" stroke-width="1.75339" stroke-miterlimit="10"/>
<path d="M12.7716 311.09C28.7133 307.917 45.0563 310.707 60.6826 314.3C81.2356 318.901 103.036 324.834 124.205 322.173C129.51 321.542 134.838 320.076 139.779 318.289C134.833 320.401 129.577 321.757 124.253 322.517C102.701 325.608 81.4698 319.135 60.6491 314.462C44.999 311.075 28.6511 308.601 12.7716 311.094V311.09Z" fill="black"/>
<path d="M134.336 187.455C133.519 181.015 135.254 174.284 139.086 169.043C141.007 175.77 137.423 182.711 133.964 188.793" fill="black"/>
<path d="M106.242 248.334C114.418 249.643 122.877 249.127 130.833 246.834C130.933 247.803 129.691 248.276 128.721 248.396C125.032 248.845 121.3 248.921 117.596 248.62" fill="#1D1D1B"/>
<path d="M146.292 308.987C145.035 312.332 143.234 318.26 142.751 321.8C143.955 322.101 144.633 322.213 145.838 322.514C148.029 317.473 149.14 313.043 150.521 308.161C152.07 302.696 153.756 298.291 155.319 292.878C151.659 291.325 150.889 293.848 149.943 296.657C148.299 301.549 148.103 304.158 146.292 308.987Z" fill="white" stroke="black" stroke-width="0.876693" stroke-miterlimit="10"/>
<path d="M124.941 362.833C127.283 364.372 129.409 366.163 131.344 368.17C133.156 370.267 134.957 372.412 137.275 373.979C141.69 377.237 147.339 379.588 149.814 384.809L149.695 384.891C146.808 381.828 143.172 379.96 139.898 377.395C137.614 375.756 135.884 373.473 133.791 371.633C131.646 369.875 129.361 368.261 127.526 366.149C126.58 365.131 125.658 364.09 124.836 362.939L124.936 362.833H124.941Z" fill="black"/>
<path d="M122.098 81.9371C121.013 90.6702 122.16 105.585 127.76 112.254C132.214 117.562 132.271 117.596 123.359 123.477C120.75 125.196 117.778 126.271 115.006 127.709C108.22 131.23 76.4231 133.409 76.4757 127.255C76.5043 123.801 84.4704 120.806 85.6937 113.764C85.6937 113.764 83.0177 106.173 85.0295 106.278C87.0413 106.383 104.039 91.5062 104.039 91.5062L122.093 81.9371H122.098Z" fill="white" stroke="#1D1D1B" stroke-width="1.97256" stroke-miterlimit="10"/>
<path d="M47.4599 14.7288C47.7896 14.5855 48.1432 14.6619 48.4921 14.6237C48.8361 14.5807 49.185 14.3418 49.0942 13.974C49.0655 13.8593 48.9747 13.7972 48.8935 13.7256C47.9616 12.8895 47.0155 12.063 46.0788 11.2365C45.7348 11.6235 45.9259 12.149 46.2318 12.4882C46.5376 12.8274 46.9677 13.2144 47.0633 13.587C47.1588 13.9596 47.0537 14.1077 47.1445 14.3944C47.2353 14.681 47.4647 14.8244 47.7323 14.7145" fill="white"/>
<path d="M57.5857 11.4371C57.9058 11.1839 58.0349 10.7635 57.7768 10.4291C56.5439 8.84301 54.9192 7.86842 52.8596 7.99263C50.8047 8.11685 48.9936 9.28731 46.9436 9.4784C46.5278 9.51662 46.2602 9.85104 46.2411 10.238C46.222 10.625 46.0165 10.8925 45.6725 10.9785C43.4838 11.5279 41.0324 10.8447 38.9632 11.7668C36.894 12.6888 35.8523 14.6428 35.2932 16.7257C34.9013 18.1828 34.4856 19.6877 34.844 21.2069C36.3923 27.7042 42.853 29.0227 47.1252 23.9491C47.345 23.6864 47.4788 23.3711 47.6747 23.0749C50.5324 18.7131 53.4665 14.7049 57.5857 11.4467V11.4371Z" fill="white" stroke="black" stroke-width="1.97256" stroke-miterlimit="10"/>
<path d="M45.3715 10.9593C46.3559 10.7348 47.2973 10.7969 48.2243 11.203C49.1514 11.609 49.873 12.211 50.5898 12.9037C51.039 13.3432 51.426 13.7971 51.6697 14.3895C51.9135 14.9819 51.88 15.5838 51.5885 16.1523" stroke="black" stroke-width="1.97256" stroke-miterlimit="10"/>
<path d="M45.4624 14.361C46.0598 14.8626 46.5233 15.2734 46.8005 16.0569C47.0728 16.8404 47.135 17.7386 47.0872 18.6081C47.0107 20.0843 47.0442 21.5462 46.1888 22.8552C45.1996 24.3696 43.5701 24.919 41.8115 24.7136" stroke="black" stroke-width="1.97256" stroke-miterlimit="10"/>
<path d="M41.51 24.7852C40.8935 24.2597 40.1672 23.8679 39.4026 23.6099C39.2067 23.5383 38.9964 23.4332 38.8339 23.2803C38.0215 22.578 37.8686 21.4362 37.4003 20.5428C37.2952 20.3517 37.1996 20.089 37.2044 19.8597C37.2187 19.3772 37.4768 18.4551 37.5532 17.9869C37.8304 16.7544 38.184 15.2686 39.4599 14.6858C41.1707 13.8067 43.2207 14.81 44.272 16.2289C44.8168 16.9264 45.1704 17.6955 45.5432 18.4073L44.7595 18.3166C45.1322 17.8627 45.763 18.0729 45.8586 18.6128C45.9733 19.1192 45.6435 19.6208 45.5241 20.0556L44.9411 21.6082L44.2912 21.3407C44.5588 20.8964 44.6496 20.347 44.6782 19.7594C44.7212 19.1765 44.6973 18.5507 44.855 17.9583L44.9506 17.9726C44.9411 19.21 45.4715 20.4186 44.9219 21.6608L44.272 21.3932L44.7021 19.7928C44.7165 19.702 44.9936 18.8708 44.9363 18.8469C44.9458 18.8516 44.9458 18.8994 45.0749 18.9759C45.1896 19.0571 45.4237 19.0141 45.4811 18.9472L45.1179 19.6208C44.5922 18.7035 44.0666 17.6239 43.4979 16.8021C42.6999 15.6365 41.1611 14.6953 39.7753 15.3307C38.6906 15.7559 38.3991 17.0792 38.0932 18.1398C38.0168 18.5077 37.7109 19.5157 37.687 19.8597C37.7492 20.4282 38.1076 20.9728 38.2175 21.5318C38.4421 22.2627 38.7431 23.0796 39.4886 23.3902C40.2532 23.6959 40.9748 24.1402 41.5721 24.7135L41.51 24.7852Z" fill="black"/>
<path d="M42.4946 11.2604C43.6893 11.6139 44.602 12.2063 45.4001 13.1618" stroke="black" stroke-width="1.97256" stroke-miterlimit="10"/>
<path d="M112.459 1.7868C111.58 2.02567 111.006 2.56551 110.82 3.45411C110.629 4.3427 110.863 5.0832 111.68 5.10708C112.497 5.13097 112.746 4.91599 113.348 4.58635C113.396 3.51621 113.205 2.57507 112.459 1.7868Z" fill="white"/>
<path d="M146.369 36.6474C146.369 36.6474 129.873 13.3863 106.777 7.49575C83.6868 1.60523 66.2065 3.36331 51.7844 16.9741C37.3624 30.5897 33.5251 52.7807 35.298 63.568C37.0709 74.3554 38.9489 83.1458 51.8131 86.4947C51.8131 86.4947 49.462 80.3558 51.9708 77.1454C52.3626 76.639 62.9187 74.9812 63.1768 74.0066C64.5721 68.7802 63.4683 61.3418 67.0618 60.4532C70.6554 59.5646 70.5789 62.5457 73.7854 66.8023C76.9919 71.059 79.5437 71.7278 86.1765 72.7454C92.8093 73.763 97.803 70.1943 110.471 70.8583C123.14 71.5224 130.422 72.9078 132.878 70.6959C135.335 68.484 132.315 68.6607 134.967 62.7845C137.614 56.9083 146.369 36.6426 146.369 36.6426V36.6474Z" fill="#828282" fill-opacity="0.5" stroke="#1D1D1B" stroke-width="2.41091" stroke-miterlimit="10"/>
<path d="M80.8101 47.8791C81.7276 45.4283 84.3941 43.8327 86.9029 43.4839C88.1883 43.3215 89.469 43.4744 90.7067 43.4505C92.5704 43.46 94.4149 43.1209 96.2738 42.9584C99.4182 42.839 102.663 42.7817 105.602 44.1528C106.787 44.7165 107.905 45.5764 108.522 46.7182L108.383 46.8472C106.261 45.5382 104.011 45.3328 101.64 45.1226C99.8578 44.9506 98.018 44.7117 96.226 44.4967C94.4245 44.2292 92.5704 43.8375 90.7497 44.0716C89.5359 44.2101 88.3747 44.6639 87.266 45.0414C85.8946 45.5 84.5135 45.8774 83.2376 46.5558C82.4253 46.9475 81.7132 47.4635 80.9725 47.9938L80.8196 47.8839L80.8101 47.8791Z" fill="#1D1D1B"/>
<path d="M63.9366 51.5529C62.8949 51.8013 61.7958 51.7536 60.8353 51.314C60.3813 51.0704 59.9608 50.6595 59.4733 50.4971C58.4746 50.1388 57.3994 50.6739 56.4007 50.6404C54.795 50.7742 53.4379 50.5258 51.88 49.7518L51.8705 49.5607C52.8644 48.8871 53.9396 48.6483 55.0005 48.6148C55.7986 48.6244 56.5918 48.8155 57.3516 49.0639C58.0828 49.3601 58.8043 49.8617 59.5976 49.8952C60.1137 49.9429 60.6919 49.7614 61.2367 49.7709C61.7767 49.7853 62.2689 50.005 62.742 50.2535C63.2103 50.521 63.6499 50.8554 64.0083 51.3714L63.9414 51.5481L63.9366 51.5529Z" fill="#1D1D1B"/>
<path d="M144.887 25.1483L146.947 22.3249C146.947 22.3249 146.799 22.1863 146.522 21.9379C143.626 19.3438 126.537 4.5195 111.657 2.1117C95.3422 -0.530201 91.2325 0.019199 84.8626 2.23591C78.4974 4.45262 92.0545 3.7599 92.0545 3.7599C92.0545 3.7599 95.1463 0.735808 105.932 4.23286C115.862 7.45282 130.518 21.4028 132.788 23.6004C132.984 23.7915 133.089 23.8918 133.089 23.8918L144.887 25.1483Z" fill="white" stroke="#1D1D1B" stroke-width="1.97256" stroke-miterlimit="10"/>
<path d="M146.947 22.3248L136.539 20.8438C136.133 20.8008 135.731 20.8629 135.368 21.011C134.914 21.2021 134.522 21.527 134.26 21.9665L133.089 23.8918" fill="white"/>
<path d="M146.947 22.3248L136.539 20.8438C136.133 20.8008 135.731 20.8629 135.368 21.011C134.914 21.2021 134.522 21.527 134.26 21.9665L133.089 23.8918" stroke="#1D1D1B" stroke-width="1.97256" stroke-miterlimit="10"/>
<path d="M96.2739 0.243662C96.2739 0.243662 109.186 -0.186303 119.436 6.22018C129.686 12.6219 136.357 20.9393 136.357 20.9393" stroke="#1D1D1B" stroke-width="1.97256" stroke-miterlimit="10"/>
<path d="M51.5313 77.4416C49.4765 77.9194 47.4265 78.3971 45.3716 78.8748C44.5497 79.0659 43.6465 79.3096 43.1687 80.0071C42.6048 80.8288 42.8772 82.0088 43.5366 82.7493C44.1961 83.4898 45.147 83.9007 46.0789 84.2494" stroke="#1D1D1B" stroke-width="1.97256" stroke-miterlimit="10"/>
<path d="M68.5669 79.3621C68.5382 78.3493 68.586 76.9591 69.3697 76.1135C70.0196 75.3634 71.286 74.4892 72.1939 75.2392C71.2573 74.8427 70.4879 75.8794 70.1869 76.6103C69.8476 77.4846 70.1773 78.1678 70.464 79.0755L68.5717 79.3526L68.5669 79.3621Z" fill="#1D1D1B"/>
<path d="M98.2141 15.1587C89.708 11.8671 79.9404 11.9674 71.5061 15.431C63.0717 18.8946 56.0566 25.6928 52.3245 34.0103C50.2984 38.5249 49.5529 44.5922 53.3424 47.7739C56.4581 41.8404 61.705 37.0535 67.8982 34.4928C67.1336 36.4229 66.3738 38.3529 65.6092 40.283C71.6829 34.3256 80.8149 31.6646 89.1394 33.4227C88.6424 34.488 88.6424 35.7731 89.1394 36.8385C96.035 35.0279 103.413 35.09 110.285 37.0057C112.302 37.5694 114.266 38.286 116.23 39.0026C119.866 40.3308 123.498 41.6589 127.135 42.9822C128.176 40.1253 131.11 38.5249 133.557 36.7191C136.004 34.9084 138.312 31.9464 137.284 29.0848C136.783 27.6898 135.588 26.6818 134.441 25.7454C132.128 23.8488 129.815 21.9521 127.498 20.0507" fill="#1D1D1B"/>
<path d="M77.68 26.8968C81.0538 27.2026 84.6091 27.9956 86.9124 30.3174C86.9554 31.4879 85.7703 32.4481 84.547 32.6727C83.3236 32.8972 82.0716 32.5819 80.8626 32.3144C71.6207 30.2505 63.5161 31.9608 54.4222 32.6631C59.3156 26.8825 70.6649 26.2662 77.68 26.9016V26.8968Z" fill="white"/>
<path d="M111.934 66.2577C114.93 62.259 116.526 57.2332 116.388 52.236C116.388 55.2362 115.059 58.0645 113.659 60.7207C112.397 63.1142 111.016 65.5889 110.954 68.2929" fill="white"/>
<path d="M42.0165 62.3451C41.4766 58.5327 41.7155 54.663 41.5769 50.8172C43.0583 51.1469 44.0666 52.5896 44.4059 54.0659C44.7452 55.5421 44.554 57.0804 44.4823 58.5948C44.2482 63.4009 45.634 67.5333 46.7426 72.0671C43.7512 70.3472 42.4849 65.6463 42.0165 62.3403V62.3451Z" fill="white"/>
<path d="M134.149 25.6691C134.149 25.6691 136.505 21.4315 138.445 23.2756C140.385 25.1244 153.699 33.7715 149.14 33.8241C144.581 33.8766 140.892 33.9722 140.892 33.9722C140.892 33.9722 133.829 28.1724 134.154 25.6691H134.149Z" fill="white" stroke="#1D1D1B" stroke-width="1.97256" stroke-miterlimit="10"/>
<path d="M150.731 31.1917C150.731 31.1917 150.856 32.5532 149.852 33.179C148.849 33.8049 144.663 32.3239 143.138 31.7602C141.618 31.1964 136.606 25.0193 137.069 23.5908C137.533 22.1624 140.586 23.0987 140.586 23.0987C142.149 23.18 143.807 23.7198 145.03 24.6944C145.518 25.0814 145.929 25.5495 146.34 26.0177C146.803 26.5432 147.267 27.0688 147.726 27.5943C147.922 27.8188 148.127 28.0577 148.184 28.3491C149.064 29.0609 149.881 29.7154 150.684 30.5133C150.77 30.5993 150.86 30.6948 150.889 30.8142C150.918 30.9337 150.851 31.2012 150.727 31.1917H150.731Z" fill="white" stroke="#1D1D1B" stroke-width="1.97256" stroke-miterlimit="10"/>
<path d="M143.95 23.6624C143.444 23.4809 142.326 23.1799 141.36 23.1226C140.113 23.0509 139.11 23.3758 139.979 24.8711C140.471 25.7167 141.074 26.4858 141.676 27.2598C141.991 27.6659 142.311 28.0719 142.627 28.478C142.937 28.8745 143.248 29.2711 143.606 29.615C144.309 30.2839 145.188 30.7425 146.105 31.0674C147.248 31.4687 148.466 31.6693 149.675 31.655C153.321 31.6072 147.42 25.8266 146.493 25.1577C144.911 24.0112 143.96 23.672 143.95 23.6672V23.6624Z" fill="white" stroke="#1D1D1B" stroke-width="1.97256" stroke-miterlimit="10"/>
<path d="M144.941 101.377C155.878 100.789 163.918 84.9658 162.899 66.0357C161.88 47.1056 152.188 32.2366 141.251 32.825C130.315 33.4133 122.275 49.2361 123.293 68.1662C124.312 87.0963 134.004 101.965 144.941 101.377Z" fill="white" stroke="#1D1D1B" stroke-width="1.97256" stroke-miterlimit="10"/>
<path d="M148.275 100.287C159.212 99.6988 167.252 83.876 166.233 64.9459C165.215 46.0158 155.523 31.1468 144.586 31.7352C133.649 32.3235 125.609 48.1463 126.628 67.0764C127.647 86.0065 137.339 100.875 148.275 100.287Z" fill="white" stroke="#1D1D1B" stroke-width="1.97256" stroke-miterlimit="10"/>
<path d="M169.177 62.9135C169.894 75.4255 165.044 85.8832 158.344 86.2654C151.64 86.6524 145.623 76.8205 144.907 64.3037C144.276 53.3539 147.912 43.9807 153.322 41.5538C154.096 41.205 154.904 40.9996 155.74 40.9518C162.444 40.5648 168.461 50.3967 169.177 62.9135Z" fill="white" stroke="#1D1D1B" stroke-width="1.97256" stroke-miterlimit="10"/>
<path d="M153.317 41.5539L142.861 43.1161C142.861 43.1161 136.171 45.4331 135.01 55.8383C133.848 66.2434 134.044 82.0518 142.417 86.8005C142.417 86.8005 148.753 91.2387 152.318 89.7816C155.883 88.3245 160.719 86.1174 160.719 86.1174" stroke="#1D1D1B" stroke-width="1.97256" stroke-miterlimit="10"/>
<path d="M158.348 78.3107C162.487 78.0293 165.382 71.0279 164.814 62.6727C164.246 54.3174 160.429 47.7723 156.29 48.0537C152.151 48.3351 149.256 55.3364 149.824 63.6917C150.393 72.0469 154.209 78.5921 158.348 78.3107Z" fill="white"/>
<path d="M164.962 62.6507C165.201 68.1686 166.1 76.5339 159.911 79.2235C151.854 81.8606 148.509 64.5378 148.715 59.0056C148.853 55.714 149.489 52.4558 151.362 49.5894C153.838 45.777 158.392 45.4712 161.307 48.9826C164.427 52.7998 164.556 57.988 164.958 62.6507H164.962ZM164.676 62.6699C164.36 58.2747 162.339 53.9081 159.29 50.8888C154.311 46.1831 151.472 55.3174 151.009 59.2015C150.325 63.5871 150.368 68.2928 152.323 72.368C153.384 74.6038 155.735 77.4511 158.272 77.1071C160.685 76.6055 162.062 73.6961 163.089 71.4794C164.26 68.7897 164.919 65.6987 164.676 62.6699Z" fill="#1D1D1B"/>
<path d="M92.1692 54.9926C93.058 58.7476 92.2504 62.8705 90.014 66.0188C89.9853 66.0618 89.9518 66.1048 89.8993 66.1192C89.8228 66.143 89.7464 66.0905 89.689 66.0379C86.4634 63.3148 85.0728 58.6043 86.3153 54.5722C85.436 55.1216 85.1015 56.2347 84.9773 57.2619C84.552 60.8258 85.89 64.557 88.4896 67.0364C88.9579 67.4855 89.56 67.9202 90.2003 67.8151C90.7881 67.7196 91.2039 67.2036 91.5431 66.7163C92.8477 64.8197 93.8704 62.7272 94.5537 60.5248C93.7366 60.4532 93.1822 59.6267 93.0341 58.8241C92.886 58.0215 93.0102 57.1902 92.9194 56.3781C92.8286 55.5659 92.4129 54.6916 91.6292 54.4575" fill="black"/>
<path d="M89.9757 57.754C89.9327 58.805 89.7416 59.8608 89.2589 60.7972C88.7811 61.7336 87.9926 62.5362 87.0082 62.8945C87.4669 63.5681 87.8827 64.2704 88.2554 64.9965C88.977 63.7687 89.6651 62.5266 90.3246 61.2654C90.5778 60.7781 90.8311 60.2812 90.9601 59.751C91.1083 59.1394 91.0939 58.5041 91.0318 57.8782C90.9362 56.9275 90.2529 53.1677 88.8766 53.3397C89.8897 54.4146 90.0283 56.359 89.971 57.7588L89.9757 57.754Z" fill="black"/>
<path d="M62.6795 59.8178C63.5684 63.5728 62.7608 67.6957 60.5243 70.844C60.4957 70.887 60.4622 70.93 60.4097 70.9443C60.3332 70.9682 60.2567 70.9156 60.1994 70.8631C56.9738 68.14 55.5832 63.4295 56.8257 59.3973C55.9464 59.9467 55.6119 61.0599 55.4876 62.087C55.0623 65.651 56.4004 69.3821 59 71.8616C59.4683 72.3106 60.0704 72.7454 60.7107 72.6403C61.2985 72.5447 61.7142 72.0288 62.0535 71.5415C63.3581 69.6449 64.3807 67.5524 65.0641 65.35C64.2469 65.2783 63.6926 64.4518 63.5445 63.6492C63.3963 62.8466 63.5206 62.0154 63.4298 61.2032C63.339 60.391 62.9232 59.5168 62.1395 59.2827" fill="black"/>
<path d="M60.4866 62.5792C60.4436 63.6302 60.2524 64.686 59.7698 65.6223C59.2872 66.5587 58.5034 67.3613 57.519 67.7196C57.9778 68.3932 58.3935 69.0955 58.7663 69.8217C59.4879 68.5939 60.176 67.3518 60.8354 66.0905C61.0887 65.6032 61.342 65.1064 61.471 64.5761C61.6191 63.9646 61.6048 63.3292 61.5427 62.7034C61.4471 61.7527 60.7638 57.9929 59.3875 58.1648C60.4006 59.2398 60.5392 61.1841 60.4818 62.5839L60.4866 62.5792Z" fill="black"/>
<path d="M110.347 7.48146C109.043 7.73944 108.178 8.78091 107.671 9.8606C105.138 10.1186 104.068 10.2189 101.306 11.3846C99.9344 11.9627 98.6059 15.0871 98.3527 17.1127C98.1615 18.6606 97.4686 20.4999 98.152 22.1433C99.1555 24.5606 101.239 26.013 103.796 26.4907C107.446 27.1739 110.849 26.3139 114.376 25.497C115.976 25.1244 117.52 24.6992 119.102 24.3074C119.623 24.1785 120.167 24.0351 120.554 23.672C120.941 23.3042 121.195 22.8599 121.314 22.3344C122.036 19.1765 122.17 16.2766 120.573 13.286C118.49 9.38286 114.944 6.55942 110.347 7.48146Z" fill="white" stroke="black" stroke-width="1.97256" stroke-miterlimit="10"/>
<path d="M107.647 9.87965C109.081 10.1711 109.812 10.6393 111.006 11.5374C111.413 11.8432 112.015 12.3209 112.33 12.8321C112.645 13.3433 112.889 13.9118 113.033 14.5233C113.549 16.7591 113.835 18.8946 113.281 21.1734C112.727 23.457 111.446 25.1769 109.539 26.5241" stroke="black" stroke-width="1.97256" stroke-miterlimit="10"/>
<path d="M100.751 17.7098C101.301 16.7496 102.032 15.5648 103.255 15.3976C105.463 15.0966 107.279 16.3387 107.666 18.5363C107.833 19.4966 107.389 20.3756 107.112 21.2595C107.026 21.5318 106.882 21.8136 106.725 22.0429C106.419 22.4968 105.841 22.8885 105.43 23.1417C105.019 23.3949 104.756 23.5669 104.331 23.5574C103.905 23.5478 103.566 23.3137 103.284 23.0175C102.41 22.0955 101.774 20.9633 101.712 19.6829C101.635 18.0299 102.29 16.334 103.92 15.775C105.549 15.216 106.987 16.4964 107.131 18.1685C107.274 19.8406 106.906 21.8614 105.501 23.0701C104.096 24.2788 102.644 22.9506 101.855 21.9092C101.062 20.8725 100.737 18.221 100.699 19.6399C100.661 21.0588 100.627 21.6846 101.946 22.879C103.265 24.0733 104.957 25.0479 106.438 23.2994C107.919 21.5556 109.104 18.0634 106.911 15.9135C104.722 13.7637 101.31 13.8067 100.742 17.7146L100.751 17.7098Z" fill="black"/>
<path d="M106.443 16.9264C105.564 17.1653 104.99 17.7051 104.804 18.5937C104.613 19.4823 104.847 20.2228 105.664 20.2467C106.481 20.2706 106.73 20.0556 107.332 19.726C107.379 18.6558 107.188 17.7147 106.443 16.9264Z" fill="white"/>
<path d="M106.749 12.5311C105.936 12.5645 105.167 12.4642 104.369 12.4355C102.386 12.3448 100.589 13.5248 99.767 15.3115C99.5137 15.6268 99.3082 15.9708 99.0789 16.31C99.1314 15.9039 99.2222 15.4978 99.3417 15.0965C99.9008 13.9786 100.766 12.9754 101.927 12.4451C103.447 11.8049 105.291 11.7141 106.753 12.5311H106.749Z" fill="black"/>
<path d="M112.865 10.9832C113.74 11.9578 114.433 13.0853 115.04 14.2414C115.666 15.388 116.292 16.6349 116.182 17.9821C116.077 20.6097 115.584 23.3137 114.093 25.5447L113.697 25.2772C115.207 23.1608 115.761 20.5333 115.943 17.9726C116.086 16.6445 115.508 15.4501 114.93 14.294C114.356 13.1235 113.706 11.9817 112.86 10.9785L112.865 10.9832Z" fill="black"/>
<path d="M115.135 13.0423C114.959 13.1426 114.638 13.3337 114.447 13.2286C114.256 13.1235 114.218 12.9802 114.151 12.8178C113.993 12.4356 113.869 12.063 113.721 11.6855C113.697 11.6234 113.683 11.5518 113.702 11.4992C113.721 11.4467 113.764 11.4228 113.821 11.3941C114.954 10.8256 117.663 9.87969 118.471 11.1839C119.073 12.1537 115.709 12.7222 115.135 13.0423Z" fill="black"/>
<path d="M112.684 10.0183C112.263 10.2524 111.771 10.4865 111.451 10.1807C111.126 9.87496 111.346 9.51665 111.585 9.29689C111.828 9.07713 112.201 9.02936 112.526 9.00069C113.998 8.8717 115.427 8.97681 116.884 9.19657C115.379 8.96725 113.984 9.28734 112.684 10.0135V10.0183Z" fill="black"/>
<path d="M117.811 18.3882C118.275 19.1669 118.256 19.9647 117.725 20.6957C117.625 20.8342 117.491 20.9346 117.314 20.8772C117.137 20.8199 117.109 20.5906 117.109 20.4043C117.109 19.7306 117.109 19.0379 117.109 18.3643C117.391 18.3978 117.668 18.4264 117.95 18.4599" fill="black"/>
<path d="M43.8564 21.9665C43.9472 22.1242 44.0762 22.2866 44.1049 22.4395C44.1288 22.5924 44.1288 22.6879 44.0858 22.8074C43.7178 23.7628 42.743 24.2167 41.7729 23.9205C40.7981 23.6243 40.1816 22.8456 39.828 21.9283C39.3023 20.5572 39.3358 19.0905 39.6273 17.686C39.871 16.5299 40.368 15.2782 41.4432 14.8004C43.1109 14.0552 43.9185 16.1381 43.6892 17.3993C43.3642 19.2004 42.9055 20.347 43.8612 21.9713L43.8564 21.9665Z" fill="black"/>
<path d="M68.7584 89.1319C72.5814 90.5795 77.1641 89.796 80.2894 87.1589" stroke="#1D1D1B" stroke-width="1.97256" stroke-miterlimit="10"/>
<path d="M124.468 80.4367C115.263 84.3069 104.081 91.1911 98.0579 96.9842C92.6889 102.148 87.7397 106.718 80.3049 107.024C76.8883 107.16 72.9248 106.025 69.8941 104.436C63.095 100.872 55.4713 93.2698 51.7028 86.5735" stroke="#1D1D1B" stroke-width="2.41091" stroke-miterlimit="10"/>
</g>
<path d="M48.1491 637.28C47.4966 635.039 48.1254 632.631 49.5251 630.769C50.9249 628.906 51.9926 626.949 52.8111 624.838C54.3177 620.947 57.746 618.124 61.8742 617.567C66.3108 616.962 70.8661 615.42 75.2671 616.167C80.6409 617.069 84.864 621.185 89.9056 623.272C91.1987 623.806 92.6103 624.245 93.5356 625.3C94.4135 626.309 94.6982 627.685 94.9354 629.001C95.3269 631.101 95.7184 633.2 96.1098 635.3C96.3233 636.462 96.5487 637.672 96.2878 638.834C96.0861 639.7 95.6353 640.483 95.1845 641.254C89.5616 650.85 83.9269 660.458 78.304 670.054C76.3229 669.045 74.6147 667.48 73.4403 665.594C72.5743 664.206 71.9812 662.64 71.0203 661.312C69.8933 659.77 68.3275 658.607 66.7141 657.575C64.14 655.927 61.4115 654.515 58.5764 653.365C56.5953 652.57 53.6889 652.238 52.4315 650.316C51.4706 648.845 51.8858 646.651 51.6248 645.002C51.1385 641.918 48.9676 640.163 48.1254 637.304L48.1491 637.28Z" fill="white" stroke="#1D1D1B" stroke-width="1.97256" stroke-miterlimit="10"/>
<path d="M6.87879 709.955C7.67359 709.588 8.59888 709.635 9.47672 709.694C16.5469 710.157 23.6051 710.631 30.6753 711.094C34.2104 711.331 38.0539 711.687 40.6518 714.107C43.3921 716.669 44.0445 720.986 46.9509 723.359C49.5251 725.47 53.2855 725.517 56.4647 724.521C59.6439 723.525 61.3877 718.507 64.3534 717.001C65.1838 716.574 67.1648 719.302 68.102 719.409C69.0036 719.504 69.7865 720.073 70.6169 720.429C75.4094 722.493 80.3205 711.782 84.081 708.164C88.7312 703.681 93.2864 700.786 99.7279 701.368C99.9295 697.441 102.456 698.889 102.717 694.962C103.073 689.601 101.78 684.133 99.0398 679.507C101.661 682.01 107 681.049 108.388 684.394C108.838 685.485 108.66 686.707 108.66 687.881C108.637 692.483 111.258 696.789 111.306 701.403C111.353 705.804 108.827 710.145 104.983 712.292C101.14 714.439 96.1097 714.285 92.3967 711.912C88.0431 714.866 83.6421 717.879 80.2849 721.935C78.7903 723.738 77.4498 725.802 75.4094 726.965C73.369 728.127 59.9168 733.346 54.3294 732.16C52.7043 731.816 51.1147 731.175 49.4539 731.152C47.8168 731.128 46.2272 731.697 44.6376 732.077C38.5995 733.56 32.253 732.492 26.12 731.436C19.9989 730.369 13.8778 729.313 7.75663 728.246C5.97723 727.937 4.03175 727.534 2.9048 726.122C0.200115 722.718 2.66755 711.924 6.89065 709.967L6.87879 709.955Z" fill="white" stroke="#1D1D1B" stroke-width="1.97256" stroke-miterlimit="10"/>
<path d="M181.853 645.393C182.518 643.152 181.877 640.744 180.453 638.882C179.03 637.019 177.939 635.062 177.108 632.951C175.578 629.06 172.078 626.237 167.879 625.68C163.359 625.075 158.721 623.533 154.237 624.28C148.768 625.182 144.462 629.297 139.338 631.385C138.021 631.919 136.585 632.358 135.648 633.413C134.747 634.422 134.474 635.798 134.213 637.114C133.81 639.214 133.418 641.313 133.015 643.413C132.789 644.575 132.576 645.785 132.837 646.947C133.038 647.813 133.501 648.596 133.964 649.367C139.693 658.963 145.423 668.571 151.153 678.167C153.169 677.158 154.901 675.593 156.111 673.707C157.001 672.319 157.594 670.753 158.579 669.425C159.718 667.883 161.319 666.72 162.956 665.688C165.578 664.04 168.354 662.628 171.236 661.478C173.253 660.683 176.219 660.351 177.488 658.429C178.461 656.958 178.045 654.764 178.306 653.115C178.805 650.031 181.011 648.276 181.865 645.417L181.853 645.393Z" fill="white" stroke="#1D1D1B" stroke-width="1.97256" stroke-miterlimit="10"/>
<path d="M23.2493 684.963C25.3964 682.71 30.533 678.914 33.5342 678.06C34.4358 677.799 35.3611 677.609 36.1796 677.147C37.2116 676.542 37.9471 675.545 38.647 674.573C41.0196 671.299 43.3921 668.025 45.7528 664.751C46.3578 663.921 46.9628 663.079 47.3661 662.142C47.8169 661.098 48.0185 659.971 48.2083 658.856C49.098 653.756 49.9759 648.667 50.8656 643.567C62.3012 646.722 74.3892 639.926 86.1333 641.634C80.1663 647.268 77.3786 656.069 79.0157 664.111C82.7643 652.926 88.8261 642.523 96.7148 633.746C97.6638 632.69 99.4432 633.165 99.716 634.564C100.25 637.245 101.567 639.937 101.851 642.701C102.219 646.248 100.843 649.723 99.4906 653.032C99.3245 651.384 97.0944 650.53 95.5522 651.135C94.0101 651.74 93.0017 653.21 92.0883 654.598C90.4276 657.125 88.7549 659.687 87.8534 662.569C87.1653 664.787 86.9636 667.124 86.4773 669.401C85.6113 673.434 83.8319 677.194 82.3253 681.037C81.5187 683.089 80.7713 685.319 81.317 687.466C81.5661 688.451 82.0881 689.364 82.2542 690.372C82.8354 693.836 79.336 696.445 77.5684 699.494C75.2433 703.503 75.8839 708.852 73.0843 712.541C72.5624 713.229 71.8032 713.893 70.9372 713.787C69.8102 713.644 69.2883 712.375 68.7426 711.379C66.4531 707.192 60.5455 705.401 59.4897 700.751C58.8017 697.691 56.2275 696.457 54.4006 693.848C53.5228 692.59 51.6841 690.93 50.3436 690.194C46.773 688.237 48.1016 687.241 44.1394 686.28C41.1145 685.545 38.6233 684.169 35.5153 684.05C31.4938 683.908 27.2707 685.118 23.2374 684.975L23.2493 684.963Z" fill="white" stroke="#1D1D1B" stroke-width="1.97256" stroke-miterlimit="10"/>
<path d="M6.42808 694.761C6.41622 692.543 7.80415 690.574 9.77335 689.566C20.6277 684.026 33.558 682.544 45.3613 685.651C48.8727 686.577 52.3959 687.953 54.9345 690.538C57.485 693.136 58.7899 696.671 60.4744 699.909C63.2028 705.152 67.0937 709.801 71.7914 713.407C72.9539 706.053 74.8401 697.643 81.4476 694.215C81.9932 690.242 79.336 686.233 80.3206 682.354C80.9612 679.839 82.9897 677.953 84.3302 675.735C87.3552 670.742 86.7858 664.289 89.3718 659.058C91.3173 655.12 95.054 652.119 99.3127 651.075C100.57 657.599 100.072 664.455 97.8773 670.718C97.474 671.88 96.9995 673.055 97.0588 674.276C97.13 675.747 97.9367 677.076 98.6366 678.368C102.836 686.09 103.892 695.461 101.507 703.918C101.27 704.784 100.938 705.697 100.202 706.195C99.4195 706.717 98.4112 706.646 97.474 706.694C91.9579 706.99 89.182 708.319 85.4571 712.399C81.7323 716.479 74.9587 723.952 69.9171 721.698C68.7189 721.165 67.6513 720.299 66.382 719.978C63.6892 719.302 61.3641 721.105 58.956 722.766C56.5478 724.426 53.6296 725.28 50.7233 724.925C44.5665 724.177 44.0446 719.018 41.0433 715.791C37.8641 712.375 32.7276 711.853 28.0656 711.557C21.7072 711.142 15.3488 710.738 8.97856 710.323C5.09947 710.074 0.21205 716.906 1.62371 708.236C2.38292 703.55 6.47553 699.517 6.43995 694.749L6.42808 694.761Z" fill="white" stroke="#1D1D1B" stroke-width="1.97256" stroke-miterlimit="10"/>
<path d="M7.18726 695.413C18.2314 696.125 29.2637 696.825 40.3078 697.536C40.7467 697.56 41.2094 697.596 41.6127 697.774C43.1786 698.462 43.1786 700.763 44.4123 701.925C45.8714 703.301 48.2558 702.542 50.0115 701.581C51.7671 700.62 53.8431 699.494 55.6581 700.348C56.5715 700.775 57.1884 701.629 57.7696 702.447C59.1932 704.452 60.6286 706.456 62.0521 708.461" fill="white"/>
<path d="M7.18738 695.413C9.7853 695.33 12.3714 695.342 14.9574 695.306C19.8211 695.627 33.1192 696.469 38.1726 696.801L40.1063 696.92C40.6994 696.967 41.5416 696.955 42.2653 697.453C44.3056 698.948 43.8074 702.708 47.1408 702.02C51.0436 701.142 54.6618 696.813 58.0426 701.795C59.3831 704.025 60.7592 706.207 62.064 708.461C60.3677 706.492 58.7425 704.475 57.0936 702.494C53.9263 697.418 49.3829 704.689 45.1242 703.04C43.0719 702.483 42.8228 699.339 41.6128 698.438C41.2569 698.165 40.7113 698.141 40.047 698.106C39.8453 698.106 23.546 697.038 22.6326 696.991L14.8981 696.504C12.3358 696.149 9.76158 695.828 7.19924 695.413H7.18738Z" fill="#1D1D1B"/>
<path d="M64.8873 711.355C62.5029 710.441 59.7982 709.837 57.4257 710.785C53.6889 712.292 52.2298 716.965 48.8015 719.065" fill="white"/>
<path d="M64.8872 711.355C56.0732 710.121 56.4765 711.64 51.1265 717.914C50.391 718.389 49.6318 718.84 48.8014 719.077C49.3708 718.436 49.8572 717.796 50.2724 717.096C52.0043 715.293 53.1787 713.146 55.1716 711.474C57.8526 709.196 62.2062 709.066 64.8872 711.367V711.355Z" fill="#1D1D1B"/>
<path d="M77.8651 701.901C84.5082 697.394 90.2853 691.629 94.8287 685.011C97.1301 688.427 100.048 691.428 103.394 693.824" fill="white"/>
<path d="M77.8292 701.854C80.8305 699.161 83.8199 696.599 86.9279 694.049C90.0003 691.463 92.0882 687.952 94.3302 684.679L94.7929 683.967C96.1452 685.841 97.5687 687.679 99.099 689.423C100.451 690.941 101.899 692.365 103.417 693.776L103.346 693.871C101.519 692.887 99.8345 691.617 98.3161 690.17C96.7858 688.747 95.4334 687.122 94.3184 685.331H95.303C93.0016 688.676 89.941 691.357 87.3194 694.441C84.8282 697.358 81.2813 700.561 77.8174 701.854H77.8292Z" fill="#1D1D1B"/>
<path d="M44.0565 667.622C44.0565 667.622 48.4576 662.569 51.5656 662.237C54.6736 661.905 81.7442 664.028 83.2152 664.028C84.6861 664.028 85.1725 667.29 85.1725 667.29L81.9103 669.081C81.9103 669.081 56.2988 665.167 50.7589 665.487C45.2191 665.807 44.0684 667.61 44.0684 667.61L44.0565 667.622Z" fill="white" stroke="#1D1D1B" stroke-width="0.438347" stroke-miterlimit="10"/>
<path d="M41.6126 670.065C41.6126 670.065 52.6212 669.342 64.6855 670.16C76.7498 670.979 79.668 672.936 79.668 672.936C79.668 672.936 82.266 667.8 78.8377 667.8C75.4094 667.8 49.2878 665.012 45.207 666.151C41.1263 667.29 41.6126 670.065 41.6126 670.065Z" fill="white" stroke="#1D1D1B" stroke-width="0.438347" stroke-miterlimit="10"/>
<path d="M38.8367 673.493C38.8367 673.493 66.8919 676.269 73.2503 676.269C79.6087 676.269 79.4544 673.493 73.7366 672.521C68.0188 671.548 49.869 667.313 41.6007 670.077C39.157 670.896 38.8248 673.505 38.8248 673.505L38.8367 673.493Z" fill="white" stroke="#1D1D1B" stroke-width="0.438347" stroke-miterlimit="10"/>
<path d="M44.0563 674.632C44.0563 674.632 39.157 673.813 37.0455 674.798C34.9339 675.782 33.6172 678.06 34.6018 678.06C35.5864 678.06 57.2713 679.365 63.7958 681.002C70.3203 682.638 71.4591 684.263 72.1115 682.959C72.764 681.654 72.2776 680.515 71.293 680.017C70.3084 679.519 60.6878 675.771 53.9972 675.118C47.3067 674.466 44.0445 674.632 44.0445 674.632H44.0563Z" fill="white" stroke="#1D1D1B" stroke-width="0.438347" stroke-miterlimit="10"/>
<path d="M223.634 733.488C222.827 733.073 221.878 733.121 220.988 733.192C213.811 733.714 206.634 734.247 199.457 734.769C195.863 735.03 191.96 735.434 189.327 738.162C186.539 741.056 185.875 745.907 182.921 748.588C180.299 750.972 176.479 751.02 173.253 749.893C170.026 748.766 168.259 743.12 165.234 741.424C164.38 740.949 162.375 744.021 161.426 744.14C160.512 744.258 159.718 744.887 158.875 745.29C154 747.615 149.017 735.552 145.198 731.472C140.476 726.419 135.85 723.157 129.314 723.809C129.112 719.385 126.55 721.022 126.277 716.598C125.909 710.56 127.226 704.404 130.013 699.185C127.356 702.008 121.923 700.917 120.523 704.689C120.073 705.91 120.239 707.286 120.25 708.615C120.274 713.81 117.617 718.65 117.569 723.845C117.522 728.803 120.084 733.702 123.999 736.11C127.914 738.518 151.971 751.328 154.035 752.644C156.099 753.961 169.777 759.833 175.447 758.492C177.096 758.101 178.71 757.389 180.394 757.354C182.067 757.318 183.668 757.958 185.293 758.397C191.438 760.058 197.868 758.872 204.096 757.674C210.312 756.476 216.528 755.278 222.744 754.08C224.559 753.736 226.528 753.273 227.667 751.684C230.419 747.852 227.904 735.695 223.622 733.476L223.634 733.488Z" fill="white" stroke="#1D1D1B" stroke-width="1.97256" stroke-miterlimit="10"/>
<path d="M207.014 705.329C204.831 702.791 199.612 698.521 196.563 697.548C195.649 697.264 194.7 697.05 193.882 696.516C192.826 695.84 192.079 694.713 191.367 693.622C188.959 689.933 186.551 686.244 184.143 682.556C183.526 681.618 182.921 680.67 182.506 679.614C182.043 678.44 181.841 677.17 181.652 675.913C180.75 670.172 179.86 664.431 178.959 658.69C167.345 662.237 155.055 654.586 143.133 656.508C149.195 662.854 152.019 672.77 150.358 681.832C146.55 669.223 140.393 657.504 132.386 647.624C131.413 646.426 129.622 646.971 129.337 648.549C128.803 651.573 127.451 654.61 127.166 657.718C126.799 661.715 128.186 665.629 129.563 669.354C129.729 667.491 131.994 666.531 133.56 667.219C135.126 667.907 136.158 669.555 137.083 671.121C138.768 673.968 140.476 676.85 141.39 680.1C142.09 682.603 142.291 685.236 142.789 687.798C143.679 692.341 145.47 696.588 147.013 700.905C147.831 703.218 148.59 705.733 148.045 708.141C147.784 709.256 147.262 710.288 147.084 711.414C146.491 715.317 150.049 718.258 151.841 721.686C154.201 726.206 153.561 732.231 156.396 736.395C156.93 737.177 157.701 737.913 158.579 737.794C159.717 737.64 160.263 736.205 160.809 735.09C163.134 730.381 169.136 728.364 170.204 723.11C170.904 719.658 173.514 718.27 175.376 715.34C176.278 713.929 178.128 712.055 179.493 711.213C183.122 709.006 181.77 707.88 185.792 706.8C188.864 705.982 191.391 704.416 194.558 704.298C198.651 704.131 202.933 705.496 207.026 705.329H207.014Z" fill="white" stroke="#1D1D1B" stroke-width="1.97256" stroke-miterlimit="10"/>
<path d="M224.096 716.372C224.108 713.882 222.697 711.652 220.692 710.513C209.659 704.262 196.539 702.613 184.546 706.1C180.987 707.132 177.405 708.686 174.819 711.604C172.221 714.534 170.892 718.519 169.184 722.161C166.408 728.08 162.458 733.299 157.689 737.367C156.503 729.076 154.593 719.611 147.879 715.744C147.321 711.272 150.026 706.753 149.018 702.376C148.377 699.541 146.313 697.418 144.949 694.927C141.876 689.305 142.457 682.034 139.836 676.127C137.867 671.69 134.059 668.31 129.729 667.136C128.448 674.49 128.958 682.212 131.188 689.269C131.603 690.574 132.078 691.902 132.018 693.278C131.947 694.939 131.129 696.422 130.417 697.88C126.146 706.575 125.079 717.143 127.511 726.668C127.76 727.641 128.092 728.673 128.839 729.242C129.634 729.835 130.666 729.752 131.615 729.811C137.226 730.144 140.037 731.638 143.822 736.24C147.606 740.843 154.486 749.264 159.611 746.726C160.833 746.121 161.912 745.148 163.205 744.792C165.946 744.021 168.306 746.062 170.75 747.936C173.194 749.81 176.159 750.759 179.113 750.367C185.365 749.525 185.899 743.701 188.947 740.072C192.174 736.217 197.393 735.635 202.127 735.303C208.592 734.841 215.045 734.378 221.51 733.915C225.449 733.631 230.407 741.329 228.984 731.555C228.213 726.277 224.061 721.734 224.084 716.361L224.096 716.372Z" fill="white" stroke="#1D1D1B" stroke-width="1.97256" stroke-miterlimit="10"/>
<path d="M223.337 717.108C212.127 717.902 200.904 718.697 189.694 719.492C189.243 719.527 188.781 719.563 188.366 719.765C186.776 720.536 186.776 723.133 185.519 724.45C184.036 726.004 181.616 725.15 179.825 724.07C178.033 722.991 175.934 721.71 174.095 722.682C173.17 723.169 172.541 724.13 171.948 725.043C170.5 727.297 169.053 729.562 167.594 731.816" fill="white"/>
<path d="M223.336 717.108C220.679 717.547 218.022 717.891 215.365 718.27L207.346 718.84C206.373 718.911 189.54 720.097 189.326 720.121C187.215 720.429 187.559 722.742 186.301 724.414C185.874 725.067 185.139 725.589 184.356 725.779C179.753 726.87 175.696 719.195 172.446 725.375C170.832 727.522 169.255 729.693 167.606 731.816C168.851 729.432 170.168 727.095 171.449 724.735C174.925 718.899 178.175 723.086 182.386 724.557C185.732 725.494 185.637 722.351 187.096 720.109C187.926 718.768 189.907 718.923 191.236 718.792C196.503 718.424 210.181 717.452 215.293 717.084C217.974 717.084 220.667 717.048 223.348 717.108H223.336Z" fill="#1D1D1B"/>
<path d="M164.723 735.054C167.143 734.022 169.896 733.346 172.304 734.414C176.1 736.11 177.571 741.376 181.058 743.748" fill="white"/>
<path d="M164.724 735.054C166.799 733.192 169.919 732.777 172.494 733.856C175.863 735.398 177.322 739.016 179.599 741.613C180.003 742.373 180.489 743.061 181.058 743.748C180.204 743.452 179.445 742.93 178.71 742.384C173.526 735.873 173.929 733.334 164.724 735.054Z" fill="#1D1D1B"/>
<path d="M151.532 724.414C144.794 719.338 138.91 712.838 134.308 705.377L151.532 724.414Z" fill="white"/>
<path d="M151.496 724.462C148.495 723.039 146.158 720.725 144.118 718.175C141.852 715.85 139.313 713.763 137.439 711.094C136.182 709.327 135.078 707.441 134.26 705.412L134.367 705.353C138.044 709.315 140.737 713.965 144.402 717.914C146.431 719.67 150.18 722.327 151.508 724.474L151.496 724.462Z" fill="#1D1D1B"/>
<path d="M185.875 685.782C185.875 685.782 181.403 680.088 178.247 679.721C175.092 679.353 147.594 681.737 146.099 681.737C144.605 681.737 144.106 685.414 144.106 685.414L147.416 687.431C147.416 687.431 173.431 683.018 179.066 683.386C184.7 683.754 185.863 685.77 185.863 685.77L185.875 685.782Z" fill="white" stroke="#1D1D1B" stroke-width="0.438347" stroke-miterlimit="10"/>
<path d="M188.366 688.545C188.366 688.545 177.191 687.727 164.925 688.652C152.659 689.565 149.706 691.772 149.706 691.772C149.706 691.772 147.072 685.995 150.548 685.995C154.024 685.995 180.572 682.852 184.712 684.133C188.852 685.414 188.354 688.545 188.354 688.545H188.366Z" fill="white" stroke="#1D1D1B" stroke-width="0.438347" stroke-miterlimit="10"/>
<path d="M191.177 692.4C191.177 692.4 162.671 695.52 156.218 695.52C149.764 695.52 149.919 692.4 155.719 691.297C161.52 690.194 179.955 685.438 188.365 688.546C190.857 689.459 191.177 692.4 191.177 692.4Z" fill="white" stroke="#1D1D1B" stroke-width="0.438347" stroke-miterlimit="10"/>
<path d="M185.875 693.682C185.875 693.682 190.845 692.768 193.004 693.859C195.163 694.951 196.48 697.536 195.495 697.536C194.511 697.536 172.458 699.007 165.839 700.846C159.207 702.684 158.045 704.523 157.392 703.052C156.74 701.581 157.226 700.3 158.223 699.743C159.219 699.185 168.994 694.962 175.791 694.227C182.589 693.492 185.898 693.682 185.898 693.682H185.875Z" fill="white" stroke="#1D1D1B" stroke-width="0.438347" stroke-miterlimit="10"/>
<path d="M52.0046 602.04C54.0806 598.126 58.5528 597.213 61.5304 599.953C64.5079 602.693 65.6348 608.54 64.152 612.929C63.8673 613.771 63.4877 614.578 62.9657 615.159C61.4236 616.879 59.0866 616.31 57.2361 617.341" fill="white"/>
<path d="M51.957 602.016C53.2026 599.383 56.192 597.545 59.1458 598.292C64.9585 600.13 66.4888 608.196 64.6264 613.392C64.1044 614.791 63.0012 616.262 61.459 616.618C59.9762 617.021 58.5764 616.867 57.2715 617.401L57.2122 617.294C58.4103 616.428 59.9881 616.345 61.1862 615.835C62.4555 615.325 63.1198 614.257 63.5113 612.988C65.0297 608.244 64.3535 600.854 58.9916 598.873C56.275 598.031 53.3805 599.656 52.0638 602.088L51.957 602.028V602.016Z" fill="black"/>
<path d="M51.0672 604.4C50.6876 605.978 50.7706 607.686 50.9486 609.323C51.0909 610.663 51.3044 612.016 51.8145 613.166C52.9415 615.693 55.4445 616.725 57.4968 615.823C59.549 614.922 61.0793 612.336 61.6012 609.465C63.3095 599.964 53.3567 594.947 51.0553 604.4H51.0672Z" fill="white" stroke="black" stroke-width="1.53421" stroke-miterlimit="10"/>
<path d="M58.0546 608.813C58.2563 607.793 58.0309 606.654 57.5683 605.812C57.07 604.899 56.2871 604.341 55.4804 604.673C51.0438 606.512 56.3583 617.163 58.0428 608.825L58.0546 608.813Z" fill="black"/>
<g clip-path="url(#clip1_501_3693)">
<path d="M224.149 150.219L223.76 149.83C222.734 148.803 221.071 148.803 220.045 149.83L203.787 166.103C202.761 167.13 202.761 168.795 203.787 169.822L204.176 170.211C205.202 171.238 206.865 171.238 207.891 170.211L224.149 153.938C225.175 152.911 225.175 151.246 224.149 150.219Z" fill="white" stroke="#1D1D1B" stroke-width="0.876693" stroke-miterlimit="10"/>
<path d="M204.738 168.81L205.185 168.489C206.364 167.643 206.635 166 205.789 164.82L199.674 156.283C198.829 155.103 197.187 154.832 196.008 155.678L195.561 155.999C194.382 156.845 194.112 158.488 194.957 159.669L201.072 168.205C201.917 169.385 203.559 169.656 204.738 168.81Z" fill="white" stroke="#1D1D1B" stroke-width="0.876693" stroke-miterlimit="10"/>
<path d="M204.935 171.418C206.766 171.418 208.251 169.932 208.251 168.099C208.251 166.266 206.766 164.781 204.935 164.781C203.104 164.781 201.62 166.266 201.62 168.099C201.62 169.932 203.104 171.418 204.935 171.418Z" fill="white" stroke="#1D1D1B" stroke-width="0.876693" stroke-miterlimit="10"/>
<path d="M237.037 148.924L236.648 148.535C235.622 147.508 233.958 147.508 232.932 148.535L216.675 164.808C215.648 165.835 215.648 167.501 216.675 168.528L217.063 168.917C218.089 169.944 219.753 169.944 220.779 168.917L237.037 152.644C238.063 151.617 238.063 149.951 237.037 148.924Z" fill="white" stroke="#1D1D1B" stroke-width="0.876693" stroke-miterlimit="10"/>
<path d="M216.548 168.809L216.994 168.488C218.174 167.642 218.444 165.999 217.599 164.819L211.484 156.282C210.638 155.102 208.997 154.831 207.818 155.677L207.371 155.998C206.192 156.844 205.921 158.487 206.767 159.668L212.882 168.204C213.727 169.385 215.368 169.655 216.548 168.809Z" fill="white" stroke="#1D1D1B" stroke-width="0.876693" stroke-miterlimit="10"/>
<path d="M216.747 171.418C218.578 171.418 220.062 169.932 220.062 168.099C220.062 166.266 218.578 164.781 216.747 164.781C214.916 164.781 213.431 166.266 213.431 168.099C213.431 169.932 214.916 171.418 216.747 171.418Z" fill="white" stroke="#1D1D1B" stroke-width="0.876693" stroke-miterlimit="10"/>
<path d="M204.814 170.259C205.965 170.259 206.898 169.325 206.898 168.173C206.898 167.021 205.965 166.088 204.814 166.088C203.663 166.088 202.731 167.021 202.731 168.173C202.731 169.325 203.663 170.259 204.814 170.259Z" fill="white" stroke="#1D1D1B" stroke-width="0.876693" stroke-miterlimit="10"/>
<path d="M216.747 170.185C217.897 170.185 218.83 169.251 218.83 168.099C218.83 166.947 217.897 166.013 216.747 166.013C215.596 166.013 214.663 166.947 214.663 168.099C214.663 169.251 215.596 170.185 216.747 170.185Z" fill="white" stroke="#1D1D1B" stroke-width="0.876693" stroke-miterlimit="10"/>
<path d="M188.496 116.817C188.385 114.743 186.614 113.152 184.542 113.263C182.47 113.375 180.88 115.147 180.991 117.221C181.103 119.296 182.873 120.887 184.946 120.775C187.018 120.664 188.608 118.891 188.496 116.817Z" fill="white" stroke="#1D1D1B" stroke-width="0.876693" stroke-miterlimit="10"/>
<path d="M189.72 160.046C189.274 160.089 188.88 159.806 188.841 159.413L187.564 156.786L187.303 154.109L188.923 153.951L189.18 156.588L190.461 159.257C190.5 159.65 190.168 160.005 189.72 160.048V160.046Z" stroke="#1D1D1B" stroke-width="0.876693" stroke-miterlimit="10"/>
<path d="M191.389 159.884C190.942 159.927 190.549 159.644 190.51 159.251L189.233 156.624L188.972 153.947L190.592 153.789L190.849 156.426L192.129 159.095C192.168 159.488 191.837 159.843 191.389 159.886V159.884Z" stroke="#1D1D1B" stroke-width="0.876693" stroke-miterlimit="10"/>
<path d="M192.726 158.982C192.334 159.021 191.991 158.774 191.956 158.428L190.839 156.128L190.611 153.785L192.028 153.646L192.252 155.954L193.373 158.29C193.406 158.633 193.115 158.943 192.726 158.98V158.982Z" stroke="#1D1D1B" stroke-width="0.876693" stroke-miterlimit="10"/>
<path d="M193.447 157.55C193.166 157.568 192.93 157.381 192.921 157.133L192.223 155.449L192.162 153.76L193.182 153.697L193.24 155.361L193.94 157.07C193.95 157.318 193.728 157.533 193.447 157.55Z" stroke="#1D1D1B" stroke-width="0.876693" stroke-miterlimit="10"/>
<path d="M190.092 147.156L188.811 147.351C186.759 147.664 185.348 149.582 185.661 151.636C185.973 153.689 187.889 155.101 189.941 154.789L191.222 154.594C193.274 154.281 194.685 152.363 194.372 150.309C194.06 148.255 192.144 146.844 190.092 147.156Z" fill="white" stroke="#1D1D1B" stroke-width="0.876693" stroke-miterlimit="10"/>
<path d="M189.481 123.734C189.169 121.68 187.252 120.268 185.2 120.581C183.149 120.893 181.738 122.811 182.05 124.865L184.977 144.118C185.289 146.172 187.205 147.583 189.257 147.271C191.309 146.959 192.719 145.04 192.407 142.987L189.481 123.734Z" fill="white" stroke="#1D1D1B" stroke-width="0.876693" stroke-miterlimit="10"/>
<path d="M184.824 119.52C186.203 119.52 187.321 118.401 187.321 117.021C187.321 115.641 186.203 114.522 184.824 114.522C183.445 114.522 182.327 115.641 182.327 117.021C182.327 118.401 183.445 119.52 184.824 119.52Z" fill="white" stroke="#1D1D1B" stroke-width="0.876693" stroke-miterlimit="10"/>
<path d="M184.927 118.42C185.706 118.42 186.336 117.788 186.336 117.009C186.336 116.23 185.706 115.599 184.927 115.599C184.149 115.599 183.518 116.23 183.518 117.009C183.518 117.788 184.149 118.42 184.927 118.42Z" fill="#1D1D1B" stroke="white" stroke-width="0.876693" stroke-miterlimit="10"/>
<path d="M185.787 105.05H183.374C181.453 105.05 179.895 106.609 179.895 108.532V110.948C179.895 112.871 181.453 114.43 183.374 114.43H185.787C187.709 114.43 189.266 112.871 189.266 110.948V108.532C189.266 106.609 187.709 105.05 185.787 105.05Z" fill="white" stroke="#1D1D1B" stroke-width="0.876693" stroke-miterlimit="10"/>
<path d="M202.13 158.495C196.904 159.023 192.077 155.648 190.776 150.554L182.397 117.735C180.795 111.463 185.122 105.227 191.554 104.539L202.099 103.409C208.644 102.709 214.242 108.078 213.823 114.653L211.657 148.599C211.326 153.785 207.297 157.972 202.132 158.495H202.13Z" fill="white" stroke="#1D1D1B" stroke-width="0.876693" stroke-miterlimit="10"/>
<path d="M197.85 108.376C200.752 108.22 203.058 107.249 203.002 106.207C202.946 105.166 200.549 104.448 197.648 104.605C194.746 104.761 192.44 105.732 192.496 106.773C192.552 107.815 194.949 108.532 197.85 108.376Z" fill="#1D1D1B"/>
<path d="M193.71 76.6529C194.592 71.0774 192.699 66.1442 189.482 65.6341C186.265 65.1241 182.941 69.2304 182.059 74.8058C181.177 80.3813 183.07 85.3146 186.287 85.8246C189.504 86.3347 192.828 82.2283 193.71 76.6529Z" fill="white" stroke="#1D1D1B" stroke-width="0.876693" stroke-miterlimit="10"/>
<path d="M195.878 77.8592C196.76 72.2838 194.867 67.3505 191.65 66.8404C188.432 66.3304 185.109 70.4367 184.227 76.0122C183.345 81.5876 185.238 86.5209 188.455 87.0309C191.672 87.541 194.996 83.4347 195.878 77.8592Z" stroke="black" stroke-width="0.876693" stroke-miterlimit="10"/>
<path d="M206.048 62.684L211.306 63.8105C219.657 65.5995 224.979 73.8262 223.192 82.1863L222.066 87.4501C220.279 95.8102 212.059 101.136 203.708 99.3471L198.449 98.2206C190.098 96.4316 184.777 88.2049 186.564 79.8449L187.689 74.5811C189.449 66.3518 197.441 61.0623 205.656 62.6051L206.048 62.684Z" fill="white" stroke="black" stroke-width="0.876693"/>
<path d="M227.427 85.8737C228.31 80.2983 226.417 75.365 223.199 74.8549C219.982 74.3449 216.659 78.4512 215.777 84.0267C214.894 89.6021 216.787 94.5354 220.005 95.0454C223.222 95.5555 226.545 91.4492 227.427 85.8737Z" fill="white" stroke="#1D1D1B" stroke-width="0.876693" stroke-miterlimit="10"/>
<path d="M229.438 86.155C230.32 80.5796 228.427 75.6463 225.21 75.1362C221.993 74.6262 218.67 78.7325 217.787 84.3079C216.905 89.8834 218.798 94.8167 222.015 95.3267C225.233 95.8368 228.556 91.7304 229.438 86.155Z" fill="white" stroke="#1D1D1B" stroke-width="0.876693" stroke-miterlimit="10"/>
<path d="M229.447 85.3569C228.876 89.0443 226.814 91.7873 224.842 91.481C222.869 91.1747 221.731 87.9381 222.302 84.2488C222.801 81.0219 224.442 78.5188 226.167 78.1481C226.413 78.0955 226.662 78.0857 226.908 78.1247C228.88 78.431 230.018 81.6677 229.447 85.3569Z" fill="white" stroke="#1D1D1B" stroke-width="0.876693" stroke-miterlimit="10"/>
<path d="M226.167 78.1502L223.029 77.9531C223.029 77.9531 220.939 78.2107 219.953 81.1683C218.967 84.126 218.039 88.7419 220.179 90.6461C220.179 90.6461 221.746 92.3336 222.873 92.1307C224.001 91.9298 225.545 91.5884 225.545 91.5884" stroke="#1D1D1B" stroke-width="0.876693" stroke-miterlimit="10"/>
<path d="M228.197 85.0127C228.552 82.5438 227.85 80.3997 226.629 80.2238C225.408 80.0479 224.13 81.9068 223.775 84.3757C223.42 86.8446 224.122 88.9887 225.343 89.1646C226.564 89.3405 227.842 87.4816 228.197 85.0127Z" fill="white"/>
<path d="M228.254 85.0214C228.112 85.8506 227.998 86.9802 227.71 87.7781C227.388 88.7672 226.455 89.8656 225.272 89.6471C224.126 89.3896 223.798 88.1039 223.64 87.1284C223.381 85.2731 223.248 83.2655 224.1 81.5272C224.437 80.8307 224.942 80.0972 225.714 79.748C226.656 79.307 227.735 79.8455 228.154 80.7351C228.839 82.0969 228.414 83.6518 228.254 85.0233V85.0214ZM228.139 85.0038C228.264 84.1201 228.11 83.1875 227.765 82.3798C227.601 81.9818 227.402 81.615 227.19 81.3243C227.018 81.0824 226.802 80.8854 226.541 80.8444C225.26 80.9283 224.424 83.3065 224.092 84.4225C223.866 85.2731 223.788 86.192 224.013 87.0504C224.215 87.8405 224.87 88.9994 225.806 88.5838C226.303 88.3224 226.673 87.8971 227.057 87.425C227.609 86.7421 228.026 85.8915 228.143 85.0058L228.139 85.0038Z" fill="#1D1D1B"/>
<path d="M210.417 80.807C210.897 78.9971 210.563 77.3377 209.671 77.1007C208.78 76.8638 207.668 78.1389 207.188 79.9489C206.708 81.7588 207.041 83.4182 207.933 83.6552C208.824 83.8921 209.936 82.617 210.417 80.807Z" fill="black"/>
<path d="M196.196 76.6312C196.634 74.9816 196.33 73.4693 195.517 73.2533C194.705 73.0374 193.691 74.1995 193.254 75.8491C192.816 77.4987 193.12 79.011 193.933 79.227C194.745 79.4429 195.759 78.2808 196.196 76.6312Z" fill="black"/>
<path d="M197.262 89.9164C197.987 91.3113 199.983 91.8498 201.31 91.0069" stroke="black" stroke-width="0.876693" stroke-miterlimit="10"/>
<path d="M203.406 62.3501C203.933 62.3351 204.461 62.3447 204.987 62.3706C205.156 62.3958 205.324 62.4219 205.49 62.4507L206.005 62.5493L211.262 63.6753C213.622 64.1799 215.625 65.1537 217.366 66.5288C216.325 66.5576 215.355 67.0259 214.508 67.7671C213.231 68.8849 212.191 70.6412 211.48 72.5513C211.198 73.3071 210.408 73.7385 209.626 73.5884L209.47 73.5503L198.264 70.2652C197.4 70.0117 196.906 69.1234 197.121 68.273L197.174 68.104C197.679 66.7284 198.468 65.2996 199.522 64.2105C200.507 63.1927 201.707 62.4863 203.12 62.3667L203.405 62.3501H203.406Z" fill="white" stroke="black" stroke-width="0.876693" stroke-miterlimit="10"/>
<path d="M201.468 99.2967L197.304 98.4046C196.503 98.233 195.715 98.7438 195.543 99.5457L194.421 104.796C194.249 105.598 194.76 106.387 195.561 106.558L199.725 107.45C200.526 107.622 201.314 107.111 201.486 106.309L202.608 101.059C202.78 100.257 202.27 99.4683 201.468 99.2967Z" fill="white" stroke="#1D1D1B" stroke-width="0.876693" stroke-miterlimit="10"/>
<path d="M214.164 106.49H211.244C209.323 106.49 207.765 108.049 207.765 109.972V112.895C207.765 114.818 209.323 116.377 211.244 116.377H214.164C216.085 116.377 217.643 114.818 217.643 112.895V109.972C217.643 108.049 216.085 106.49 214.164 106.49Z" fill="white" stroke="#1D1D1B" stroke-width="0.876693" stroke-miterlimit="10"/>
<path d="M216.62 120.039C216.508 117.964 214.738 116.373 212.665 116.485C210.593 116.597 209.003 118.369 209.115 120.443C209.226 122.517 210.997 124.109 213.069 123.997C215.142 123.885 216.731 122.113 216.62 120.039Z" fill="white" stroke="#1D1D1B" stroke-width="0.876693" stroke-miterlimit="10"/>
<path d="M217.842 163.267C217.395 163.31 217.002 163.027 216.963 162.634L215.686 160.007L215.425 157.33L217.045 157.172L217.302 159.809L218.583 162.478C218.621 162.871 218.29 163.226 217.842 163.269V163.267Z" fill="white" stroke="#1D1D1B" stroke-width="0.876693" stroke-miterlimit="10"/>
<path d="M219.511 163.105C219.064 163.147 218.67 162.865 218.631 162.472L217.355 159.845L217.094 157.168L218.713 157.01L218.971 159.647L220.251 162.316C220.29 162.709 219.959 163.064 219.511 163.107V163.105Z" fill="white" stroke="#1D1D1B" stroke-width="0.876693" stroke-miterlimit="10"/>
<path d="M220.849 162.203C220.458 162.242 220.115 161.995 220.08 161.649L218.963 159.349L218.735 157.006L220.152 156.867L220.376 159.175L221.497 161.511C221.53 161.854 221.239 162.164 220.849 162.201V162.203Z" fill="white" stroke="#1D1D1B" stroke-width="0.876693" stroke-miterlimit="10"/>
<path d="M221.569 160.771C221.288 160.789 221.052 160.602 221.043 160.354L220.345 158.67L220.284 156.981L221.304 156.918L221.362 158.582L222.062 160.291C222.072 160.539 221.849 160.754 221.569 160.771Z" fill="white" stroke="#1D1D1B" stroke-width="0.876693" stroke-miterlimit="10"/>
<path d="M218.214 150.376L216.933 150.571C214.881 150.884 213.471 152.802 213.783 154.855C214.095 156.909 216.011 158.321 218.063 158.008L219.345 157.813C221.396 157.501 222.807 155.583 222.495 153.529C222.182 151.475 220.266 150.064 218.214 150.376Z" fill="white" stroke="#1D1D1B" stroke-width="0.876693" stroke-miterlimit="10"/>
<path d="M217.603 126.953C217.291 124.899 215.375 123.488 213.323 123.8C211.271 124.113 209.861 126.031 210.173 128.085L213.099 147.338C213.411 149.391 215.327 150.803 217.379 150.491C219.431 150.178 220.841 148.26 220.529 146.206L217.603 126.953Z" fill="white" stroke="#1D1D1B" stroke-width="0.876693" stroke-miterlimit="10"/>
<path d="M212.946 122.741C214.325 122.741 215.443 121.622 215.443 120.242C215.443 118.862 214.325 117.743 212.946 117.743C211.567 117.743 210.449 118.862 210.449 120.242C210.449 121.622 211.567 122.741 212.946 122.741Z" fill="white" stroke="#1D1D1B" stroke-width="0.876693" stroke-miterlimit="10"/>
<path d="M213.051 121.641C213.829 121.641 214.46 121.009 214.46 120.23C214.46 119.451 213.829 118.82 213.051 118.82C212.273 118.82 211.642 119.451 211.642 120.23C211.642 121.009 212.273 121.641 213.051 121.641Z" fill="#1D1D1B" stroke="white" stroke-width="0.876693" stroke-miterlimit="10"/>
</g>
<defs>
<clipPath id="clip0_501_3693">
<rect width="209.311" height="678.122" fill="white" transform="translate(2.82715)"/>
</clipPath>
<clipPath id="clip1_501_3693">
<rect width="58.3001" height="109.806" fill="white" transform="translate(179.7 61.8069)"/>
</clipPath>
</defs>
</svg>
